<?xml version="1.0" encoding="UTF-8"?>
<svg width="652px" height="102px" viewBox="0 0 652 102" version="1.1" xmlns="http://www.w3.org/2000/svg" xmlns:xlink="http://www.w3.org/1999/xlink">
    <title>settings</title>
    <defs>
        <radialGradient cx="50%" cy="50%" fx="50%" fy="50%" r="236.869385%" gradientTransform="translate(0.5, 0.5), scale(0.1564, 1), translate(-0.5, -0.5)" id="radialGradient-1">
            <stop stop-color="#FFFFFF" offset="0%"></stop>
            <stop stop-color="#000000" offset="100%"></stop>
        </radialGradient>
        <radialGradient cx="50%" cy="50%" fx="50%" fy="50%" r="236.869385%" gradientTransform="translate(0.5, 0.5), scale(0.1564, 1), translate(-0.5, -0.5)" id="radialGradient-2">
            <stop stop-color="#522E77" offset="0%"></stop>
            <stop stop-color="#522E77" offset="100%"></stop>
        </radialGradient>
    </defs>
    <g id="Page-1" stroke="none" stroke-width="1" fill="none" fill-rule="evenodd">
        <g id="settings">
            <g id="register" fill="url(#radialGradient-2)">
                <rect id="Rectangle-Copy-5" x="0" y="0" width="652" height="102" rx="12"></rect>
            </g>
            <g id="СОХРАНИТЬ-Copy" transform="translate(237.9531, 39.75)" fill="#FFFFFF" fill-rule="nonzero">
                <path d="M18.21875,13 C18.3229167,14.2916667 18.2265625,15.4479167 17.9296875,16.46875 C17.6328125,17.4895833 17.2083333,18.3229167 16.65625,18.96875 C16.1041667,19.6145833 15.4322917,20.1510417 14.640625,20.578125 C13.8489583,21.0052083 13.0338542,21.3046875 12.1953125,21.4765625 C11.3567708,21.6484375 10.4739583,21.734375 9.546875,21.734375 C8.25520833,21.734375 7.03645833,21.4947917 5.890625,21.015625 C4.74479167,20.5364583 3.73177083,19.8515625 2.8515625,18.9609375 C1.97135417,18.0703125 1.27604167,16.9270833 0.765625,15.53125 C0.255208333,14.1354167 0,12.5833333 0,10.875 C0,9.45833333 0.169270833,8.15625 0.5078125,6.96875 C0.846354167,5.78125 1.31770833,4.76302083 1.921875,3.9140625 C2.52604167,3.06510417 3.23958333,2.34375 4.0625,1.75 C4.88541667,1.15625 5.77604167,0.716145833 6.734375,0.4296875 C7.69270833,0.143229167 8.703125,0 9.765625,0 C10.6822917,0 11.5729167,0.106770833 12.4375,0.3203125 C13.3020833,0.533854167 14.1171875,0.875 14.8828125,1.34375 C15.6484375,1.8125 16.2994792,2.38541667 16.8359375,3.0625 C17.3723958,3.73958333 17.765625,4.578125 18.015625,5.578125 C18.265625,6.578125 18.3125,7.68229167 18.15625,8.890625 L13,8.890625 C13.1666667,7.43229167 12.9973958,6.33854167 12.4921875,5.609375 C11.9869792,4.88020833 11.046875,4.515625 9.671875,4.515625 C8.27604167,4.515625 7.25520833,5.0546875 6.609375,6.1328125 C5.96354167,7.2109375 5.640625,8.79166667 5.640625,10.875 C5.640625,15.1041667 7.03645833,17.21875 9.828125,17.21875 C10.984375,17.21875 11.8359375,16.9036458 12.3828125,16.2734375 C12.9296875,15.6432292 13.1875,14.5520833 13.15625,13 L18.21875,13 Z" id="Path"></path>
                <path d="M30.328125,21.703125 C28.2239583,21.703125 26.4244792,21.2395833 24.9296875,20.3125 C23.4348958,19.3854167 22.3229167,18.1145833 21.59375,16.5 C20.8645833,14.8854167 20.5,13 20.5,10.84375 C20.5,8.69791667 20.8671875,6.8203125 21.6015625,5.2109375 C22.3359375,3.6015625 23.4505208,2.3359375 24.9453125,1.4140625 C26.4401042,0.4921875 28.2447917,0.03125 30.359375,0.03125 C32.484375,0.03125 34.2994792,0.4921875 35.8046875,1.4140625 C37.3098958,2.3359375 38.4270833,3.6015625 39.15625,5.2109375 C39.8854167,6.8203125 40.25,8.69791667 40.25,10.84375 C40.25,13 39.8828125,14.8854167 39.1484375,16.5 C38.4140625,18.1145833 37.2916667,19.3854167 35.78125,20.3125 C34.2708333,21.2395833 32.453125,21.703125 30.328125,21.703125 Z M30.328125,17.21875 C31.8177083,17.21875 32.90625,16.6979167 33.59375,15.65625 C34.28125,14.6145833 34.625,13.0104167 34.625,10.84375 C34.625,8.70833333 34.28125,7.11979167 33.59375,6.078125 C32.90625,5.03645833 31.8177083,4.515625 30.328125,4.515625 C28.8697917,4.515625 27.8072917,5.03385417 27.140625,6.0703125 C26.4739583,7.10677083 26.140625,8.69791667 26.140625,10.84375 C26.140625,13.0104167 26.4713542,14.6145833 27.1328125,15.65625 C27.7942708,16.6979167 28.859375,17.21875 30.328125,17.21875 Z" id="Shape"></path>
                <path d="M58.96875,0.515625 L54.171875,10.171875 L59.546875,21.25 L53.65625,21.25 L52.03125,17.859375 C51.9270833,17.640625 51.7838542,17.3411458 51.6015625,16.9609375 C51.4192708,16.5807292 51.28125,16.296875 51.1875,16.109375 C51.09375,15.921875 50.9765625,15.6822917 50.8359375,15.390625 C50.6953125,15.0989583 50.5885417,14.8671875 50.515625,14.6953125 C50.4427083,14.5234375 50.3671875,14.3385417 50.2890625,14.140625 C50.2109375,13.9427083 50.1510417,13.7734375 50.109375,13.6328125 C50.0677083,13.4921875 50.0364583,13.3645833 50.015625,13.25 L49.53125,13.25 C49.2604167,14.2395833 48.5364583,15.8385417 47.359375,18.046875 L45.65625,21.25 L39.921875,21.25 L45.625,10.53125 L40.375,0.515625 L46.234375,0.515625 L47.359375,2.625 C48.578125,4.95833333 49.34375,6.97395833 49.65625,8.671875 L50.140625,8.671875 C50.4427083,6.77604167 51.1458333,4.76041667 52.25,2.625 L53.34375,0.515625 L58.96875,0.515625 Z" id="Path"></path>
                <path d="M61.78125,0.515625 L69.234375,0.515625 C70.3072917,0.515625 71.2864583,0.59375 72.171875,0.75 C73.0572917,0.90625 73.8828125,1.17447917 74.6484375,1.5546875 C75.4140625,1.93489583 76.0598958,2.41927083 76.5859375,3.0078125 C77.1119792,3.59635417 77.5234375,4.34375 77.8203125,5.25 C78.1171875,6.15625 78.265625,7.19270833 78.265625,8.359375 C78.265625,9.703125 78.0260417,10.8932292 77.546875,11.9296875 C77.0677083,12.9661458 76.3984375,13.8046875 75.5390625,14.4453125 C74.6796875,15.0859375 73.6822917,15.5703125 72.546875,15.8984375 C71.4114583,16.2265625 70.15625,16.390625 68.78125,16.390625 L67.25,16.390625 L67.25,21.25 L61.78125,21.25 L61.78125,0.515625 Z M68.75,5.15625 L67.25,5.15625 L67.25,11.75 L68.78125,11.75 C71.3854167,11.75 72.6875,10.6302083 72.6875,8.390625 C72.6875,7.28645833 72.3697917,6.47135417 71.734375,5.9453125 C71.0989583,5.41927083 70.1041667,5.15625 68.75,5.15625 Z" id="Shape"></path>
                <path d="M90.828125,21.25 L90,18.171875 L83.4375,18.171875 L82.640625,21.25 L76.96875,21.25 L82.765625,0.515625 L90.765625,0.515625 L96.5625,21.25 L90.828125,21.25 Z M86.921875,5 L86.46875,5 C86.375,6.52083333 85.9739583,8.61979167 85.265625,11.296875 L84.6875,13.5 L88.71875,13.5 L88.140625,11.296875 C87.3802083,8.44270833 86.9739583,6.34375 86.921875,5 Z" id="Shape"></path>
                <polygon id="Path" points="111 0.515625 116.484375 0.515625 116.484375 21.25 111 21.25 111 13.34375 104.09375 13.34375 104.09375 21.25 98.625 21.25 98.625 0.515625 104.09375 0.515625 104.09375 8.671875 111 8.671875"></polygon>
                <path d="M133.8125,21.25 L133.8125,12.765625 C133.8125,11.265625 133.869792,9.74739583 133.984375,8.2109375 C134.098958,6.67447917 134.223958,5.55729167 134.359375,4.859375 L133.90625,4.796875 C133.677083,5.77604167 133.348958,7.01822917 132.921875,8.5234375 C132.494792,10.0286458 132.057292,11.3385417 131.609375,12.453125 L128.015625,21.25 L120.3125,21.25 L120.3125,0.515625 L125.78125,0.515625 L125.78125,9 C125.78125,10.4895833 125.723958,12.0026042 125.609375,13.5390625 C125.494792,15.0755208 125.369792,16.1927083 125.234375,16.890625 L125.6875,16.96875 C125.916667,15.9895833 126.244792,14.7473958 126.671875,13.2421875 C127.098958,11.7369792 127.536458,10.4270833 127.984375,9.3125 L131.578125,0.515625 L139.28125,0.515625 L139.28125,21.25 L133.8125,21.25 Z" id="Path"></path>
                <polygon id="Path" points="152.8125 21.25 147.34375 21.25 147.34375 5.15625 141.6875 5.15625 141.6875 0.515625 158.484375 0.515625 158.484375 5.15625 152.8125 5.15625"></polygon>
                <path d="M160.875,0.515625 L166.34375,0.515625 L166.34375,7.203125 L168.65625,7.203125 C169.510417,7.203125 170.322917,7.28385417 171.09375,7.4453125 C171.864583,7.60677083 172.596354,7.8671875 173.289062,8.2265625 C173.981771,8.5859375 174.578125,9.03125 175.078125,9.5625 C175.578125,10.09375 175.976562,10.7552083 176.273438,11.546875 C176.570312,12.3385417 176.71875,13.2239583 176.71875,14.203125 C176.71875,15.359375 176.494792,16.3932292 176.046875,17.3046875 C175.598958,18.2161458 174.984375,18.9557292 174.203125,19.5234375 C173.421875,20.0911458 172.526042,20.5208333 171.515625,20.8125 C170.505208,21.1041667 169.411458,21.25 168.234375,21.25 L160.875,21.25 L160.875,0.515625 Z M168.484375,11.6875 L166.34375,11.6875 L166.34375,16.765625 L168.453125,16.765625 C170.244792,16.765625 171.140625,15.921875 171.140625,14.234375 C171.140625,13.3802083 170.908854,12.7421875 170.445312,12.3203125 C169.981771,11.8984375 169.328125,11.6875 168.484375,11.6875 Z" id="Shape"></path>
            </g>
        </g>
    </g>
</svg>