<?xml version="1.0" encoding="UTF-8"?>
<svg width="652px" height="102px" viewBox="0 0 652 102" version="1.1" xmlns="http://www.w3.org/2000/svg" xmlns:xlink="http://www.w3.org/1999/xlink">
    <title>register</title>
    <g id="Page-1" stroke="none" stroke-width="1" fill="none" fill-rule="evenodd">
        <g id="register">
            <rect id="Rectangle-Copy-4" fill="#FCDB3C" x="0" y="0" width="652" height="102" rx="12"></rect>
            <path d="M206.921875,40.265625 L214.375,40.265625 C215.447917,40.265625 216.427083,40.34375 217.3125,40.5 C218.197917,40.65625 219.023438,40.9244792 219.789062,41.3046875 C220.554688,41.6848958 221.200521,42.1692708 221.726562,42.7578125 C222.252604,43.3463542 222.664062,44.09375 222.960938,45 C223.257812,45.90625 223.40625,46.9427083 223.40625,48.109375 C223.40625,49.453125 223.166667,50.6432292 222.6875,51.6796875 C222.208333,52.7161458 221.539062,53.5546875 220.679688,54.1953125 C219.820312,54.8359375 218.822917,55.3203125 217.6875,55.6484375 C216.552083,55.9765625 215.296875,56.140625 213.921875,56.140625 L212.390625,56.140625 L212.390625,61 L206.921875,61 L206.921875,40.265625 Z M213.890625,44.90625 L212.390625,44.90625 L212.390625,51.5 L213.921875,51.5 C216.526042,51.5 217.828125,50.3802083 217.828125,48.140625 C217.828125,47.0364583 217.510417,46.2213542 216.875,45.6953125 C216.239583,45.1692708 215.244792,44.90625 213.890625,44.90625 Z" id="Shape" fill="#484848" fill-rule="nonzero"></path>
            <polygon id="Path" fill="#484848" fill-rule="nonzero" points="238.46875 52.78125 231.421875 52.78125 231.421875 56.640625 239.640625 56.640625 239.640625 61 225.953125 61 225.953125 40.265625 239.328125 40.265625 239.328125 44.609375 231.421875 44.609375 231.421875 48.421875 238.46875 48.421875"></polygon>
            <polygon id="Path" fill="#484848" fill-rule="nonzero" points="255.734375 44.90625 248.15625 44.90625 248.15625 61 242.6875 61 242.6875 40.265625 255.734375 40.265625"></polygon>
            <path d="M271.953125,61 L271.953125,52.515625 C271.953125,51.015625 272.010417,49.4973958 272.125,47.9609375 C272.239583,46.4244792 272.364583,45.3072917 272.5,44.609375 L272.046875,44.546875 C271.817708,45.5260417 271.489583,46.7682292 271.0625,48.2734375 C270.635417,49.7786458 270.197917,51.0885417 269.75,52.203125 L266.15625,61 L258.453125,61 L258.453125,40.265625 L263.921875,40.265625 L263.921875,48.75 C263.921875,50.2395833 263.864583,51.7526042 263.75,53.2890625 C263.635417,54.8255208 263.510417,55.9427083 263.375,56.640625 L263.828125,56.71875 C264.057292,55.7395833 264.385417,54.4973958 264.8125,52.9921875 C265.239583,51.4869792 265.677083,50.1770833 266.125,49.0625 L269.71875,40.265625 L277.421875,40.265625 L277.421875,61 L271.953125,61 Z" id="Path" fill="#484848" fill-rule="nonzero"></path>
            <path d="M298.515625,52.75 C298.619792,54.0416667 298.523438,55.1979167 298.226562,56.21875 C297.929688,57.2395833 297.505208,58.0729167 296.953125,58.71875 C296.401042,59.3645833 295.729167,59.9010417 294.9375,60.328125 C294.145833,60.7552083 293.330729,61.0546875 292.492188,61.2265625 C291.653646,61.3984375 290.770833,61.484375 289.84375,61.484375 C288.552083,61.484375 287.333333,61.2447917 286.1875,60.765625 C285.041667,60.2864583 284.028646,59.6015625 283.148438,58.7109375 C282.268229,57.8203125 281.572917,56.6770833 281.0625,55.28125 C280.552083,53.8854167 280.296875,52.3333333 280.296875,50.625 C280.296875,49.2083333 280.466146,47.90625 280.804688,46.71875 C281.143229,45.53125 281.614583,44.5130208 282.21875,43.6640625 C282.822917,42.8151042 283.536458,42.09375 284.359375,41.5 C285.182292,40.90625 286.072917,40.4661458 287.03125,40.1796875 C287.989583,39.8932292 289,39.75 290.0625,39.75 C290.979167,39.75 291.869792,39.8567708 292.734375,40.0703125 C293.598958,40.2838542 294.414062,40.625 295.179688,41.09375 C295.945312,41.5625 296.596354,42.1354167 297.132812,42.8125 C297.669271,43.4895833 298.0625,44.328125 298.3125,45.328125 C298.5625,46.328125 298.609375,47.4322917 298.453125,48.640625 L293.296875,48.640625 C293.463542,47.1822917 293.294271,46.0885417 292.789062,45.359375 C292.283854,44.6302083 291.34375,44.265625 289.96875,44.265625 C288.572917,44.265625 287.552083,44.8046875 286.90625,45.8828125 C286.260417,46.9609375 285.9375,48.5416667 285.9375,50.625 C285.9375,54.8541667 287.333333,56.96875 290.125,56.96875 C291.28125,56.96875 292.132812,56.6536458 292.679688,56.0234375 C293.226562,55.3932292 293.484375,54.3020833 293.453125,52.75 L298.515625,52.75 Z" id="Path" fill="#484848" fill-rule="nonzero"></path>
            <polygon id="Path" fill="#484848" fill-rule="nonzero" points="310.5 61 305.03125 61 305.03125 44.90625 299.375 44.90625 299.375 40.265625 316.171875 40.265625 316.171875 44.90625 310.5 44.90625"></polygon>
            <path d="M318.5625,40.265625 L326.015625,40.265625 C327.088542,40.265625 328.067708,40.34375 328.953125,40.5 C329.838542,40.65625 330.664062,40.9244792 331.429688,41.3046875 C332.195312,41.6848958 332.841146,42.1692708 333.367188,42.7578125 C333.893229,43.3463542 334.304688,44.09375 334.601562,45 C334.898438,45.90625 335.046875,46.9427083 335.046875,48.109375 C335.046875,49.453125 334.807292,50.6432292 334.328125,51.6796875 C333.848958,52.7161458 333.179688,53.5546875 332.320312,54.1953125 C331.460938,54.8359375 330.463542,55.3203125 329.328125,55.6484375 C328.192708,55.9765625 326.9375,56.140625 325.5625,56.140625 L324.03125,56.140625 L324.03125,61 L318.5625,61 L318.5625,40.265625 Z M325.53125,44.90625 L324.03125,44.90625 L324.03125,51.5 L325.5625,51.5 C328.166667,51.5 329.46875,50.3802083 329.46875,48.140625 C329.46875,47.0364583 329.151042,46.2213542 328.515625,45.6953125 C327.880208,45.1692708 326.885417,44.90625 325.53125,44.90625 Z" id="Shape" fill="#484848" fill-rule="nonzero"></path>
            <path d="M347.609375,61 L346.78125,57.921875 L340.21875,57.921875 L339.421875,61 L333.75,61 L339.546875,40.265625 L347.546875,40.265625 L353.34375,61 L347.609375,61 Z M343.703125,44.75 L343.25,44.75 C343.15625,46.2708333 342.755208,48.3697917 342.046875,51.046875 L341.46875,53.25 L345.5,53.25 L344.921875,51.046875 C344.161458,48.1927083 343.755208,46.09375 343.703125,44.75 Z" id="Shape" fill="#484848" fill-rule="nonzero"></path>
            <polygon id="Path" fill="#484848" fill-rule="nonzero" points="367.4375 40.265625 372.90625 40.265625 372.90625 56.359375 374.984375 56.359375 374.984375 65.546875 369.765625 65.546875 369.765625 61 355.40625 61 355.40625 40.265625 360.875 40.265625 360.875 56.359375 367.4375 56.359375"></polygon>
            <path d="M391.203125,61 L391.203125,52.515625 C391.203125,51.015625 391.260417,49.4973958 391.375,47.9609375 C391.489583,46.4244792 391.614583,45.3072917 391.75,44.609375 L391.296875,44.546875 C391.067708,45.5260417 390.739583,46.7682292 390.3125,48.2734375 C389.885417,49.7786458 389.447917,51.0885417 389,52.203125 L385.40625,61 L377.703125,61 L377.703125,40.265625 L383.171875,40.265625 L383.171875,48.75 C383.171875,50.2395833 383.114583,51.7526042 383,53.2890625 C382.885417,54.8255208 382.760417,55.9427083 382.625,56.640625 L383.078125,56.71875 C383.307292,55.7395833 383.635417,54.4973958 384.0625,52.9921875 C384.489583,51.4869792 384.927083,50.1770833 385.375,49.0625 L388.96875,40.265625 L396.671875,40.265625 L396.671875,61 L391.203125,61 Z" id="Path" fill="#484848" fill-rule="nonzero"></path>
            <path d="M416,61 L410.53125,61 L410.53125,54.734375 L409.1875,54.734375 C408.333333,54.734375 407.729167,54.875 407.375,55.15625 C407.020833,55.4375 406.739583,55.9479167 406.53125,56.6875 C406.479167,56.8854167 406.395833,57.3125 406.28125,57.96875 C406.166667,58.625 406.039062,59.2161458 405.898438,59.7421875 C405.757812,60.2682292 405.583333,60.6875 405.375,61 L399.078125,61 C399.338542,60.7395833 399.583333,60.3463542 399.8125,59.8203125 C400.041667,59.2942708 400.302083,58.5885417 400.59375,57.703125 C400.885417,56.8177083 401.09375,56.2083333 401.21875,55.875 C401.614583,54.8333333 402.096354,54.0260417 402.664062,53.453125 C403.231771,52.8802083 404.03125,52.5364583 405.0625,52.421875 L405.0625,52.109375 C404.572917,52.0364583 404.091146,51.9088542 403.617188,51.7265625 C403.143229,51.5442708 402.679688,51.296875 402.226562,50.984375 C401.773438,50.671875 401.377604,50.3098958 401.039062,49.8984375 C400.700521,49.4869792 400.427083,48.9973958 400.21875,48.4296875 C400.010417,47.8619792 399.90625,47.25 399.90625,46.59375 C399.90625,45.53125 400.098958,44.5885417 400.484375,43.765625 C400.869792,42.9427083 401.403646,42.28125 402.085938,41.78125 C402.768229,41.28125 403.552083,40.9036458 404.4375,40.6484375 C405.322917,40.3932292 406.286458,40.265625 407.328125,40.265625 L416,40.265625 L416,61 Z M405.4375,47.46875 C405.4375,47.96875 405.528646,48.3984375 405.710938,48.7578125 C405.893229,49.1171875 406.148438,49.390625 406.476562,49.578125 C406.804688,49.765625 407.145833,49.8984375 407.5,49.9765625 C407.854167,50.0546875 408.244792,50.09375 408.671875,50.09375 L410.53125,50.09375 L410.53125,44.90625 L408.578125,44.90625 C408.244792,44.90625 407.942708,44.9244792 407.671875,44.9609375 C407.401042,44.9973958 407.119792,45.0703125 406.828125,45.1796875 C406.536458,45.2890625 406.294271,45.4348958 406.101562,45.6171875 C405.908854,45.7994792 405.75,46.046875 405.625,46.359375 C405.5,46.671875 405.4375,47.0416667 405.4375,47.46875 Z" id="Shape" fill="#484848" fill-rule="nonzero"></path>
        </g>
    </g>
</svg>