<?xml version="1.0" encoding="UTF-8"?>
<svg width="320px" height="320px" viewBox="0 0 320 320" version="1.1" xmlns="http://www.w3.org/2000/svg" xmlns:xlink="http://www.w3.org/1999/xlink">
    <title>Artboard</title>
    <g id="Artboard" stroke="none" stroke-width="1" fill="none" fill-rule="evenodd">
        <g id="औ" transform="translate(13.6, 23.1)" fill="#000000" fill-rule="nonzero">
            <path d="M244.5,81.3 L243.3,81.3 L160.2,0.9 L138.9,13.8 C172.8,42.9 201.3,64.5 224.7,81.3 L120.3,81.3 L120.3,100.5 L152.4,100.5 L152.4,174.3 C147,177.6 138.6,180.6 126.6,180.6 C114.6,180.6 105.3,177.3 98.1,173.1 C92.7,168.3 86.4,165 80.4,163.5 L80.4,162.3 C90,157.5 101.7,144.3 101.7,125.7 C101.7,100.8 83.7,81 53.4,81 C33.6,81 18.9,89.7 10.8,100.2 L26.7,114.6 C31.8,107.4 39.9,101.4 52.8,101.4 C69,101.4 78.9,111.6 78.9,127.2 C78.9,145.2 66.3,156.3 47.7,156.3 L38.4,156.3 L38.4,176.4 L54.6,176.4 C75.9,176.4 87.6,186.3 87.6,203.1 C87.6,219.9 76.5,233.7 54,233.7 C35.4,233.7 22.8,223.8 15.6,215.4 L0,231 C9.6,240.9 27.9,253.8 54,253.8 C88.8,253.8 110.4,231.3 110.4,202.8 C110.4,200.1 110.1,197.7 109.8,195.3 C116.1,198.3 123.6,200.1 132.3,200.1 C141,200.1 147.6,198 152.4,195.9 L152.4,273.9 L175.2,273.9 L175.2,100.5 L234.3,100.5 L234.3,273.9 L256.8,273.9 C256.8,267.727344 256.8,246.403125 256.8,209.927344 C256.8,173.451562 256.8,136.975781 256.8,100.5 L293.1,100.5 L293.1,81.3 L258,81.3 L228.3,0 L203.1,6 L244.5,81.3 Z" id="Path"></path>
        </g>
    </g>
</svg>