<?xml version="1.0" encoding="UTF-8"?>
<svg width="652px" height="102px" viewBox="0 0 652 102" version="1.1" xmlns="http://www.w3.org/2000/svg" xmlns:xlink="http://www.w3.org/1999/xlink">
    <title>back</title>
    <defs>
        <radialGradient cx="50%" cy="50%" fx="50%" fy="50%" r="236.869385%" gradientTransform="translate(0.5, 0.5), scale(0.1564, 1), translate(-0.5, -0.5)" id="radialGradient-1">
            <stop stop-color="#FFFFFF" offset="0%"></stop>
            <stop stop-color="#000000" offset="100%"></stop>
        </radialGradient>
        <radialGradient cx="50%" cy="50%" fx="50%" fy="50%" r="236.869385%" gradientTransform="translate(0.5, 0.5), scale(0.1564, 1), translate(-0.5, -0.5)" id="radialGradient-2">
            <stop stop-color="#EAEEF4" offset="0%"></stop>
            <stop stop-color="#EAEEF4" offset="100%"></stop>
        </radialGradient>
    </defs>
    <g id="Page-1" stroke="none" stroke-width="1" fill="none" fill-rule="evenodd">
        <g id="back">
            <g fill="url(#radialGradient-2)" id="register">
                <rect id="Rectangle-Copy-5" x="0" y="0" width="652" height="102" rx="12"></rect>
            </g>
            <g id="НАЗАД" transform="translate(280.9219, 39.7812)" fill="#909293" fill-rule="nonzero">
                <polygon id="Path" points="12.375 0.484375 17.859375 0.484375 17.859375 21.21875 12.375 21.21875 12.375 13.3125 5.46875 13.3125 5.46875 21.21875 0 21.21875 0 0.484375 5.46875 0.484375 5.46875 8.640625 12.375 8.640625"></polygon>
                <path d="M33.78125,21.21875 L32.953125,18.140625 L26.390625,18.140625 L25.59375,21.21875 L19.921875,21.21875 L25.71875,0.484375 L33.71875,0.484375 L39.515625,21.21875 L33.78125,21.21875 Z M29.875,4.96875 L29.421875,4.96875 C29.328125,6.48958333 28.9270833,8.58854167 28.21875,11.265625 L27.640625,13.46875 L31.671875,13.46875 L31.09375,11.265625 C30.3333333,8.41145833 29.9270833,6.3125 29.875,4.96875 Z" id="Shape"></path>
                <path d="M48.296875,21.671875 C47.515625,21.671875 46.7604167,21.6067708 46.03125,21.4765625 C45.3020833,21.3463542 44.5963542,21.1302083 43.9140625,20.828125 C43.2317708,20.5260417 42.640625,20.15625 42.140625,19.71875 C41.640625,19.28125 41.2395833,18.7369792 40.9375,18.0859375 C40.6354167,17.4348958 40.484375,16.7083333 40.484375,15.90625 C40.484375,15.34375 40.5364583,14.8333333 40.640625,14.375 L45.578125,14.375 C45.515625,14.6875 45.484375,14.9739583 45.484375,15.234375 C45.484375,16.6822917 46.421875,17.40625 48.296875,17.40625 C49.109375,17.40625 49.7760417,17.2265625 50.296875,16.8671875 C50.8177083,16.5078125 51.078125,15.9427083 51.078125,15.171875 C51.078125,13.5885417 50.0885417,12.796875 48.109375,12.796875 L46.53125,12.796875 L46.53125,8.96875 L48.078125,8.96875 C48.890625,8.96875 49.5572917,8.76041667 50.078125,8.34375 C50.5989583,7.92708333 50.859375,7.3125 50.859375,6.5 C50.859375,5.67708333 50.6171875,5.06510417 50.1328125,4.6640625 C49.6484375,4.26302083 49.0572917,4.0625 48.359375,4.0625 C48.015625,4.0625 47.6953125,4.09895833 47.3984375,4.171875 C47.1015625,4.24479167 46.8177083,4.36458333 46.546875,4.53125 C46.2760417,4.69791667 46.0625,4.9453125 45.90625,5.2734375 C45.75,5.6015625 45.671875,5.98958333 45.671875,6.4375 C45.671875,6.59375 45.6927083,6.81770833 45.734375,7.109375 L40.96875,7.109375 C40.8645833,6.53645833 40.8125,6.05729167 40.8125,5.671875 C40.8125,4.86979167 40.9609375,4.14322917 41.2578125,3.4921875 C41.5546875,2.84114583 41.9479167,2.30208333 42.4375,1.875 C42.9270833,1.44791667 43.5026042,1.09114583 44.1640625,0.8046875 C44.8255208,0.518229167 45.5078125,0.3125 46.2109375,0.1875 C46.9140625,0.0625 47.640625,0 48.390625,0 C49.859375,0 51.1614583,0.203125 52.296875,0.609375 C53.4322917,1.015625 54.3411458,1.64583333 55.0234375,2.5 C55.7057292,3.35416667 56.046875,4.38020833 56.046875,5.578125 C56.046875,6.86979167 55.7473958,7.875 55.1484375,8.59375 C54.5494792,9.3125 53.6614583,9.91666667 52.484375,10.40625 L52.484375,10.8125 C53.7864583,11.25 54.7838542,11.8776042 55.4765625,12.6953125 C56.1692708,13.5130208 56.515625,14.59375 56.515625,15.9375 C56.515625,17.1875 56.1432292,18.2526042 55.3984375,19.1328125 C54.6536458,20.0130208 53.6744792,20.65625 52.4609375,21.0625 C51.2473958,21.46875 49.859375,21.671875 48.296875,21.671875 Z" id="Path"></path>
                <path d="M71.328125,21.21875 L70.5,18.140625 L63.9375,18.140625 L63.140625,21.21875 L57.46875,21.21875 L63.265625,0.484375 L71.265625,0.484375 L77.0625,21.21875 L71.328125,21.21875 Z M67.421875,4.96875 L66.96875,4.96875 C66.875,6.48958333 66.4739583,8.58854167 65.765625,11.265625 L65.1875,13.46875 L69.21875,13.46875 L68.640625,11.265625 C67.8802083,8.41145833 67.4739583,6.3125 67.421875,4.96875 Z" id="Shape"></path>
                <path d="M96.890625,16.578125 L98.96875,16.578125 L98.96875,25.765625 L93.75,25.765625 L93.75,21.21875 L83.0625,21.21875 L83.0625,25.765625 L77.6875,25.765625 L77.6875,16.578125 L77.8125,16.578125 C80.3958333,16.578125 81.6875,12.7708333 81.6875,5.15625 L81.6875,0.484375 L96.890625,0.484375 L96.890625,16.578125 Z M83.640625,16.578125 L91.40625,16.578125 L91.40625,5.125 L86.734375,5.125 C86.734375,7.10416667 86.6588542,8.79166667 86.5078125,10.1875 C86.3567708,11.5833333 86.1302083,12.6796875 85.828125,13.4765625 C85.5260417,14.2734375 85.203125,14.8697917 84.859375,15.265625 C84.515625,15.6614583 84.109375,15.9479167 83.640625,16.125 L83.640625,16.578125 Z" id="Shape"></path>
            </g>
        </g>
    </g>
</svg>