<?xml version="1.0" encoding="UTF-8"?>
<svg width="289px" height="40px" viewBox="0 0 289 40" version="1.1" xmlns="http://www.w3.org/2000/svg" xmlns:xlink="http://www.w3.org/1999/xlink">
    <title>he_is_the_one</title>
    <defs>
        <linearGradient x1="50%" y1="0%" x2="50%" y2="100%" id="linearGradient-1">
            <stop stop-color="#8F8F8F" offset="0%"></stop>
            <stop stop-color="#565656" offset="100%"></stop>
        </linearGradient>
        <linearGradient x1="50%" y1="0%" x2="50%" y2="100%" id="linearGradient-2">
            <stop stop-color="#8F8F8F" offset="0%"></stop>
            <stop stop-color="#565656" offset="100%"></stop>
        </linearGradient>
        <linearGradient x1="50%" y1="0%" x2="50%" y2="100%" id="linearGradient-3">
            <stop stop-color="#8F8F8F" offset="0%"></stop>
            <stop stop-color="#565656" offset="100%"></stop>
        </linearGradient>
        <linearGradient x1="50%" y1="0%" x2="50%" y2="100%" id="linearGradient-4">
            <stop stop-color="#8F8F8F" offset="0%"></stop>
            <stop stop-color="#565656" offset="100%"></stop>
        </linearGradient>
        <linearGradient x1="50%" y1="0%" x2="50%" y2="100%" id="linearGradient-5">
            <stop stop-color="#8F8F8F" offset="0%"></stop>
            <stop stop-color="#565656" offset="100%"></stop>
        </linearGradient>
        <linearGradient x1="50%" y1="0%" x2="50%" y2="100%" id="linearGradient-6">
            <stop stop-color="#8F8F8F" offset="0%"></stop>
            <stop stop-color="#565656" offset="100%"></stop>
        </linearGradient>
        <linearGradient x1="50%" y1="0%" x2="50%" y2="100%" id="linearGradient-7">
            <stop stop-color="#8F8F8F" offset="0%"></stop>
            <stop stop-color="#565656" offset="100%"></stop>
        </linearGradient>
        <linearGradient x1="50%" y1="0%" x2="50%" y2="100%" id="linearGradient-8">
            <stop stop-color="#8F8F8F" offset="0%"></stop>
            <stop stop-color="#565656" offset="100%"></stop>
        </linearGradient>
        <linearGradient x1="50%" y1="0%" x2="50%" y2="100%" id="linearGradient-9">
            <stop stop-color="#8F8F8F" offset="0%"></stop>
            <stop stop-color="#565656" offset="100%"></stop>
        </linearGradient>
    </defs>
    <g id="Page-1" stroke="none" stroke-width="1" fill="none" fill-rule="evenodd">
        <g id="he_is_the_one" transform="translate(0.3926, 0.1387)" fill-rule="nonzero">
            <path d="M13.4521484,33.4228516 C11.710612,33.4228516 10.1033529,33.1298828 8.63037109,32.5439453 C7.15738932,31.9580078 5.89599609,31.1482747 4.84619141,30.1147461 C3.79638672,29.0812174 2.90120443,27.8605143 2.16064453,26.4526367 C1.42008464,25.0447591 0.87483724,23.5188802 0.524902344,21.875 C0.174967448,20.2311198 0,18.5058594 0,16.6992188 C0,14.5345052 0.272623698,12.4796549 0.817871094,10.534668 C1.36311849,8.58968099 2.16878255,6.81966146 3.23486328,5.22460938 C4.30094401,3.62955729 5.72102865,2.36002604 7.49511719,1.41601562 C9.26920573,0.472005208 11.2874349,0 13.5498047,0 C15.7145182,0 17.6554362,0.451660156 19.3725586,1.35498047 C21.089681,2.25830078 22.4853516,3.48714193 23.5595703,5.04150391 C24.6337891,6.59586589 25.4516602,8.36588542 26.0131836,10.3515625 C26.574707,12.3372396 26.8554688,14.453125 26.8554688,16.6992188 C26.8554688,18.4244792 26.6967773,20.0805664 26.3793945,21.6674805 C26.0620117,23.2543945 25.5533854,24.7680664 24.8535156,26.2084961 C24.1536458,27.6489258 23.2910156,28.898112 22.265625,29.9560547 C21.2402344,31.0139974 19.9747721,31.8562826 18.4692383,32.4829102 C16.9637044,33.1095378 15.2913411,33.4228516 13.4521484,33.4228516 Z M13.4033203,29.4677734 C15.9912109,29.4677734 18.0989583,28.3284505 19.7265625,26.0498047 C21.3541667,23.7711589 22.1679688,20.6542969 22.1679688,16.6992188 C22.1679688,12.7929688 21.3500977,9.69238281 19.7143555,7.39746094 C18.0786133,5.10253906 15.9749349,3.95507812 13.4033203,3.95507812 C10.7991536,3.95507812 8.69954427,5.09440104 7.10449219,7.37304688 C5.5094401,9.65169271 4.71191406,12.7604167 4.71191406,16.6992188 C4.71191406,20.6705729 5.50537109,23.7915039 7.09228516,26.0620117 C8.67919922,28.3325195 10.7828776,29.4677734 13.4033203,29.4677734 Z" id="Shape" fill="url(#linearGradient-1)"></path>
            <polygon id="Path" fill="url(#linearGradient-2)" points="36.8408203 32.8613281 32.5927734 32.8613281 32.5927734 7.86132812 36.8408203 7.86132812 36.8408203 18.2617188 47.3388672 18.2617188 47.3388672 7.86132812 51.5869141 7.86132812 51.5869141 32.8613281 47.3388672 32.8613281 47.3388672 21.8994141 36.8408203 21.8994141"></polygon>
            <polygon id="Path" fill="url(#linearGradient-3)" points="76.6357422 32.8613281 72.3876953 32.8613281 72.3876953 11.5234375 64.9169922 11.5234375 64.9169922 7.86132812 84.0820312 7.86132812 84.0820312 11.5234375 76.6357422 11.5234375"></polygon>
            <path d="M87.2802734,15.2587891 C86.9710286,12.898763 87.6261393,10.9944661 89.2456055,9.54589844 C90.8650716,8.09733073 93.1803385,7.37304688 96.1914062,7.37304688 C99.202474,7.37304688 101.35498,8.12988281 102.648926,9.64355469 C103.942871,11.1572266 104.589844,13.3951823 104.589844,16.3574219 L104.589844,32.8613281 L100.341797,32.8613281 L100.341797,32.4707031 C100.341797,32.2753906 100.382487,31.9376628 100.463867,31.4575195 C100.545247,30.9773763 100.65918,30.3629557 100.805664,29.6142578 C100.952148,28.8655599 101.057943,28.2958984 101.123047,27.9052734 L100.683594,27.9052734 C99.4954427,31.5348307 97.0621745,33.3496094 93.3837891,33.3496094 C92.1468099,33.3496094 91.0441081,33.1502279 90.0756836,32.7514648 C89.1072591,32.3527018 88.3382161,31.8115234 87.7685547,31.1279297 C87.1988932,30.4443359 86.7675781,29.691569 86.4746094,28.8696289 C86.1816406,28.0476888 86.0351562,27.1809896 86.0351562,26.2695312 C86.0351562,25.374349 86.1368815,24.5483398 86.340332,23.7915039 C86.5437826,23.034668 86.8082682,22.3754883 87.1337891,21.8139648 C87.4593099,21.2524414 87.886556,20.7397461 88.4155273,20.2758789 C88.9444987,19.8120117 89.469401,19.4254557 89.9902344,19.1162109 C90.5110677,18.8069661 91.1458333,18.5302734 91.8945312,18.2861328 C92.6432292,18.0419922 93.3268229,17.8507487 93.9453125,17.7124023 C94.5638021,17.574056 95.296224,17.4560547 96.1425781,17.3583984 C96.9889323,17.2607422 97.7091471,17.1875 98.3032227,17.1386719 C98.8972982,17.0898438 99.609375,17.0491536 100.439453,17.0166016 L100.439453,16.0644531 C100.439453,12.4674479 98.8688151,10.6689453 95.7275391,10.6689453 C94.1162109,10.6689453 92.9199219,11.0839844 92.1386719,11.9140625 C91.3574219,12.7441406 91.0888672,13.8590495 91.3330078,15.2587891 L87.2802734,15.2587891 Z M94.921875,30.1513672 C96.2239583,30.1513672 97.3022461,29.7607422 98.1567383,28.9794922 C99.0112305,28.1982422 99.605306,27.2338867 99.9389648,26.0864258 C100.272624,24.9389648 100.439453,23.6328125 100.439453,22.1679688 L100.439453,19.6533203 C96.6959635,19.7835286 94.0429688,20.3653971 92.4804688,21.3989258 C90.9179688,22.4324544 90.1367188,23.836263 90.1367188,25.6103516 C90.1367188,26.961263 90.5802409,28.0558268 91.4672852,28.894043 C92.3543294,29.7322591 93.5058594,30.1513672 94.921875,30.1513672 Z" id="Shape" fill="url(#linearGradient-4)"></path>
            <path d="M115.50293,32.8613281 L111.254883,32.8613281 L111.254883,7.86132812 L115.50293,7.86132812 L115.50293,18.6035156 L117.96875,18.6035156 C119.026693,18.6035156 119.844564,18.3878581 120.422363,17.956543 C121.000163,17.5252279 121.492513,16.780599 121.899414,15.7226562 C121.964518,15.5436198 122.1639,15.0146484 122.497559,14.1357422 C122.831217,13.2568359 123.079427,12.6180013 123.242188,12.2192383 C123.404948,11.8204753 123.628743,11.2874349 123.913574,10.6201172 C124.198405,9.95279948 124.458822,9.39941406 124.694824,8.95996094 C124.930827,8.52050781 125.154622,8.15429688 125.366211,7.86132812 L130.053711,7.86132812 C129.370117,8.54492188 128.788249,9.36279297 128.308105,10.3149414 C127.827962,11.2670898 127.347819,12.3860677 126.867676,13.671875 C126.387533,14.9576823 125.984701,15.9342448 125.65918,16.6015625 C125.154622,17.594401 124.580892,18.3390299 123.937988,18.8354492 C123.295085,19.3318685 122.436523,19.6940104 121.362305,19.921875 L121.362305,20.3613281 C122.61556,20.5729167 123.567708,20.9513346 124.21875,21.496582 C124.869792,22.0418294 125.415039,22.8841146 125.854492,24.0234375 C127.38444,28.0436198 128.889974,30.9895833 130.371094,32.8613281 L125.366211,32.8613281 C124.438477,31.6731771 123.35612,29.1910807 122.119141,25.4150391 C121.695964,24.1780599 121.191406,23.2666016 120.605469,22.6806641 C120.019531,22.0947266 119.140625,21.8017578 117.96875,21.8017578 L115.50293,21.8017578 L115.50293,32.8613281 Z" id="Path" fill="url(#linearGradient-5)"></path>
            <path d="M150.390625,29.9560547 C148.535156,32.2184245 145.939128,33.3496094 142.602539,33.3496094 C139.265951,33.3496094 136.665853,32.2184245 134.802246,29.9560547 C132.938639,27.6936849 132.006836,24.4954427 132.006836,20.3613281 C132.006836,16.2272135 132.938639,13.0289714 134.802246,10.7666016 C136.665853,8.50423177 139.265951,7.37304688 142.602539,7.37304688 C145.939128,7.37304688 148.539225,8.50423177 150.402832,10.7666016 C152.266439,13.0289714 153.198242,16.2272135 153.198242,20.3613281 C153.198242,24.4954427 152.26237,27.6936849 150.390625,29.9560547 Z M142.602539,30.0048828 C144.588216,30.0048828 146.126302,29.1910807 147.216797,27.5634766 C148.307292,25.9358724 148.852539,23.5351562 148.852539,20.3613281 C148.852539,17.2363281 148.307292,14.855957 147.216797,13.2202148 C146.126302,11.5844727 144.588216,10.7666016 142.602539,10.7666016 C140.600586,10.7666016 139.058431,11.5804036 137.976074,13.2080078 C136.893717,14.835612 136.352539,17.2200521 136.352539,20.3613281 C136.352539,23.5351562 136.893717,25.9358724 137.976074,27.5634766 C139.058431,29.1910807 140.600586,30.0048828 142.602539,30.0048828 Z" id="Shape" fill="url(#linearGradient-6)"></path>
            <path d="M161.206055,0.708007812 C163.419596,1.2125651 165.592448,1.46484375 167.724609,1.46484375 C169.791667,1.46484375 171.95638,1.2125651 174.21875,0.708007812 L174.21875,3.95507812 C171.95638,4.45963542 169.791667,4.71191406 167.724609,4.71191406 C165.592448,4.71191406 163.419596,4.45963542 161.206055,3.95507812 L161.206055,0.708007812 Z M162.866211,32.8613281 L157.958984,32.8613281 L157.958984,7.86132812 L162.109375,7.86132812 L162.109375,18.0175781 C162.109375,23.2747396 161.808268,26.953125 161.206055,29.0527344 L161.71875,29.1992188 C161.897786,28.7923177 162.194824,28.0761719 162.609863,27.0507812 C163.024902,26.0253906 163.513184,24.8860677 164.074707,23.6328125 C164.63623,22.3795573 165.299479,21.0042318 166.064453,19.5068359 L172.119141,7.86132812 L177.026367,7.86132812 L177.026367,32.8613281 L172.875977,32.8613281 L172.875977,22.7050781 C172.875977,17.3828125 173.168945,13.7044271 173.754883,11.6699219 L173.266602,11.5234375 C173.087565,11.9303385 172.790527,12.6464844 172.375488,13.671875 C171.960449,14.6972656 171.472168,15.8365885 170.910645,17.0898438 C170.349121,18.343099 169.685872,19.7184245 168.920898,21.2158203 L162.866211,32.8613281 Z" id="Shape" fill="url(#linearGradient-7)"></path>
            <path d="M210.131836,29.9560547 C208.276367,32.2184245 205.680339,33.3496094 202.34375,33.3496094 C199.007161,33.3496094 196.407064,32.2184245 194.543457,29.9560547 C192.67985,27.6936849 191.748047,24.4954427 191.748047,20.3613281 C191.748047,16.2272135 192.67985,13.0289714 194.543457,10.7666016 C196.407064,8.50423177 199.007161,7.37304688 202.34375,7.37304688 C205.680339,7.37304688 208.280436,8.50423177 210.144043,10.7666016 C212.00765,13.0289714 212.939453,16.2272135 212.939453,20.3613281 C212.939453,24.4954427 212.003581,27.6936849 210.131836,29.9560547 Z M202.34375,30.0048828 C204.329427,30.0048828 205.867513,29.1910807 206.958008,27.5634766 C208.048503,25.9358724 208.59375,23.5351562 208.59375,20.3613281 C208.59375,17.2363281 208.048503,14.855957 206.958008,13.2202148 C205.867513,11.5844727 204.329427,10.7666016 202.34375,10.7666016 C200.341797,10.7666016 198.799642,11.5804036 197.717285,13.2080078 C196.634928,14.835612 196.09375,17.2200521 196.09375,20.3613281 C196.09375,23.5351562 196.634928,25.9358724 197.717285,27.5634766 C198.799642,29.1910807 200.341797,30.0048828 202.34375,30.0048828 Z" id="Shape" fill="url(#linearGradient-6)"></path>
            <path d="M235.742188,29.1992188 L238.647461,29.1992188 L238.647461,39.0625 L234.985352,39.0625 L234.985352,32.8613281 L218.75,32.8613281 L218.75,39.0625 L215.087891,39.0625 L215.087891,29.1992188 L215.551758,29.1992188 C216.707357,29.1992188 217.602539,28.7516276 218.237305,27.8564453 C218.87207,26.961263 219.376628,25.5615234 219.750977,23.6572266 C220.027669,22.1761068 220.27181,16.9108073 220.483398,7.86132812 L235.742188,7.86132812 L235.742188,29.1992188 Z M220.288086,29.1992188 L231.591797,29.1992188 L231.591797,11.5234375 L224.243164,11.5234375 C224.015299,17.3665365 223.828125,21.09375 223.681641,22.7050781 C223.421224,25.6510417 222.290039,27.7018229 220.288086,28.8574219 L220.288086,29.1992188 Z" id="Shape" fill="url(#linearGradient-8)"></path>
            <path d="M247.875977,32.8613281 L242.96875,32.8613281 L242.96875,7.86132812 L247.119141,7.86132812 L247.119141,18.0175781 C247.119141,23.2747396 246.818034,26.953125 246.21582,29.0527344 L246.728516,29.1992188 C246.907552,28.7923177 247.20459,28.0761719 247.619629,27.0507812 C248.034668,26.0253906 248.522949,24.8860677 249.084473,23.6328125 C249.645996,22.3795573 250.309245,21.0042318 251.074219,19.5068359 L257.128906,7.86132812 L262.036133,7.86132812 L262.036133,32.8613281 L257.885742,32.8613281 L257.885742,22.7050781 C257.885742,17.3828125 258.178711,13.7044271 258.764648,11.6699219 L258.276367,11.5234375 C258.097331,11.9303385 257.800293,12.6464844 257.385254,13.671875 C256.970215,14.6972656 256.481934,15.8365885 255.92041,17.0898438 C255.358887,18.343099 254.695638,19.7184245 253.930664,21.2158203 L247.875977,32.8613281 Z" id="Path" fill="url(#linearGradient-9)"></path>
            <polygon id="Path" fill="url(#linearGradient-2)" points="272.949219 32.8613281 268.701172 32.8613281 268.701172 7.86132812 272.949219 7.86132812 272.949219 18.2617188 283.447266 18.2617188 283.447266 7.86132812 287.695312 7.86132812 287.695312 32.8613281 283.447266 32.8613281 283.447266 21.8994141 272.949219 21.8994141"></polygon>
        </g>
    </g>
</svg>