<?xml version="1.0" encoding="UTF-8"?>
<svg width="652px" height="102px" viewBox="0 0 652 102" version="1.1" xmlns="http://www.w3.org/2000/svg" xmlns:xlink="http://www.w3.org/1999/xlink">
    <title>confirm</title>
    <defs>
        <radialGradient cx="50%" cy="50%" fx="50%" fy="50%" r="236.869385%" gradientTransform="translate(0.5, 0.5), scale(0.1564, 1), translate(-0.5, -0.5)" id="radialGradient-1">
            <stop stop-color="#FFFFFF" offset="0%"></stop>
            <stop stop-color="#000000" offset="100%"></stop>
        </radialGradient>
        <radialGradient cx="50%" cy="50%" fx="50%" fy="50%" r="236.869385%" gradientTransform="translate(0.5, 0.5), scale(0.1564, 1), translate(-0.5, -0.5)" id="radialGradient-2">
            <stop stop-color="#EAEEF4" offset="0%"></stop>
            <stop stop-color="#EAEEF4" offset="100%"></stop>
        </radialGradient>
    </defs>
    <g id="Page-1" stroke="none" stroke-width="1" fill="none" fill-rule="evenodd">
        <g id="confirm">
            <g id="register" fill="url(#radialGradient-2)">
                <rect id="Rectangle-Copy-5" x="0" y="0" width="652" height="102" rx="12"></rect>
            </g>
            <g id="ЗАРЕГИСТРИРОВАТЬ" transform="translate(173.8281, 38.75)" fill="#909293" fill-rule="nonzero">
                <path d="M7.8125,21.703125 C7.03125,21.703125 6.27604167,21.6380208 5.546875,21.5078125 C4.81770833,21.3776042 4.11197917,21.1614583 3.4296875,20.859375 C2.74739583,20.5572917 2.15625,20.1875 1.65625,19.75 C1.15625,19.3125 0.755208333,18.7682292 0.453125,18.1171875 C0.151041667,17.4661458 0,16.7395833 0,15.9375 C0,15.375 0.0520833333,14.8645833 0.15625,14.40625 L5.09375,14.40625 C5.03125,14.71875 5,15.0052083 5,15.265625 C5,16.7135417 5.9375,17.4375 7.8125,17.4375 C8.625,17.4375 9.29166667,17.2578125 9.8125,16.8984375 C10.3333333,16.5390625 10.59375,15.9739583 10.59375,15.203125 C10.59375,13.6197917 9.60416667,12.828125 7.625,12.828125 L6.046875,12.828125 L6.046875,9 L7.59375,9 C8.40625,9 9.07291667,8.79166667 9.59375,8.375 C10.1145833,7.95833333 10.375,7.34375 10.375,6.53125 C10.375,5.70833333 10.1328125,5.09635417 9.6484375,4.6953125 C9.1640625,4.29427083 8.57291667,4.09375 7.875,4.09375 C7.53125,4.09375 7.2109375,4.13020833 6.9140625,4.203125 C6.6171875,4.27604167 6.33333333,4.39583333 6.0625,4.5625 C5.79166667,4.72916667 5.578125,4.9765625 5.421875,5.3046875 C5.265625,5.6328125 5.1875,6.02083333 5.1875,6.46875 C5.1875,6.625 5.20833333,6.84895833 5.25,7.140625 L0.484375,7.140625 C0.380208333,6.56770833 0.328125,6.08854167 0.328125,5.703125 C0.328125,4.90104167 0.4765625,4.17447917 0.7734375,3.5234375 C1.0703125,2.87239583 1.46354167,2.33333333 1.953125,1.90625 C2.44270833,1.47916667 3.01822917,1.12239583 3.6796875,0.8359375 C4.34114583,0.549479167 5.0234375,0.34375 5.7265625,0.21875 C6.4296875,0.09375 7.15625,0.03125 7.90625,0.03125 C9.375,0.03125 10.6770833,0.234375 11.8125,0.640625 C12.9479167,1.046875 13.8567708,1.67708333 14.5390625,2.53125 C15.2213542,3.38541667 15.5625,4.41145833 15.5625,5.609375 C15.5625,6.90104167 15.2630208,7.90625 14.6640625,8.625 C14.0651042,9.34375 13.1770833,9.94791667 12,10.4375 L12,10.84375 C13.3020833,11.28125 14.2994792,11.9088542 14.9921875,12.7265625 C15.6848958,13.5442708 16.03125,14.625 16.03125,15.96875 C16.03125,17.21875 15.6588542,18.2838542 14.9140625,19.1640625 C14.1692708,20.0442708 13.1901042,20.6875 11.9765625,21.09375 C10.7630208,21.5 9.375,21.703125 7.8125,21.703125 Z" id="Path"></path>
                <path d="M30.84375,21.25 L30.015625,18.171875 L23.453125,18.171875 L22.65625,21.25 L16.984375,21.25 L22.78125,0.515625 L30.78125,0.515625 L36.578125,21.25 L30.84375,21.25 Z M26.9375,5 L26.484375,5 C26.390625,6.52083333 25.9895833,8.61979167 25.28125,11.296875 L24.703125,13.5 L28.734375,13.5 L28.15625,11.296875 C27.3958333,8.44270833 26.9895833,6.34375 26.9375,5 Z" id="Shape"></path>
                <path d="M38.640625,0.515625 L46.09375,0.515625 C47.1666667,0.515625 48.1458333,0.59375 49.03125,0.75 C49.9166667,0.90625 50.7421875,1.17447917 51.5078125,1.5546875 C52.2734375,1.93489583 52.9192708,2.41927083 53.4453125,3.0078125 C53.9713542,3.59635417 54.3828125,4.34375 54.6796875,5.25 C54.9765625,6.15625 55.125,7.19270833 55.125,8.359375 C55.125,9.703125 54.8854167,10.8932292 54.40625,11.9296875 C53.9270833,12.9661458 53.2578125,13.8046875 52.3984375,14.4453125 C51.5390625,15.0859375 50.5416667,15.5703125 49.40625,15.8984375 C48.2708333,16.2265625 47.015625,16.390625 45.640625,16.390625 L44.109375,16.390625 L44.109375,21.25 L38.640625,21.25 L38.640625,0.515625 Z M45.609375,5.15625 L44.109375,5.15625 L44.109375,11.75 L45.640625,11.75 C48.2447917,11.75 49.546875,10.6302083 49.546875,8.390625 C49.546875,7.28645833 49.2291667,6.47135417 48.59375,5.9453125 C47.9583333,5.41927083 46.9635417,5.15625 45.609375,5.15625 Z" id="Shape"></path>
                <polygon id="Path" points="70.1875 13.03125 63.140625 13.03125 63.140625 16.890625 71.359375 16.890625 71.359375 21.25 57.671875 21.25 57.671875 0.515625 71.046875 0.515625 71.046875 4.859375 63.140625 4.859375 63.140625 8.671875 70.1875 8.671875"></polygon>
                <polygon id="Path" points="87.453125 5.15625 79.875 5.15625 79.875 21.25 74.40625 21.25 74.40625 0.515625 87.453125 0.515625"></polygon>
                <path d="M103.671875,21.25 L103.671875,12.765625 C103.671875,11.265625 103.729167,9.74739583 103.84375,8.2109375 C103.958333,6.67447917 104.083333,5.55729167 104.21875,4.859375 L103.765625,4.796875 C103.536458,5.77604167 103.208333,7.01822917 102.78125,8.5234375 C102.354167,10.0286458 101.916667,11.3385417 101.46875,12.453125 L97.875,21.25 L90.171875,21.25 L90.171875,0.515625 L95.640625,0.515625 L95.640625,9 C95.640625,10.4895833 95.5833333,12.0026042 95.46875,13.5390625 C95.3541667,15.0755208 95.2291667,16.1927083 95.09375,16.890625 L95.546875,16.96875 C95.7760417,15.9895833 96.1041667,14.7473958 96.53125,13.2421875 C96.9583333,11.7369792 97.3958333,10.4270833 97.84375,9.3125 L101.4375,0.515625 L109.140625,0.515625 L109.140625,21.25 L103.671875,21.25 Z" id="Path"></path>
                <path d="M130.234375,13 C130.338542,14.2916667 130.242188,15.4479167 129.945312,16.46875 C129.648438,17.4895833 129.223958,18.3229167 128.671875,18.96875 C128.119792,19.6145833 127.447917,20.1510417 126.65625,20.578125 C125.864583,21.0052083 125.049479,21.3046875 124.210938,21.4765625 C123.372396,21.6484375 122.489583,21.734375 121.5625,21.734375 C120.270833,21.734375 119.052083,21.4947917 117.90625,21.015625 C116.760417,20.5364583 115.747396,19.8515625 114.867188,18.9609375 C113.986979,18.0703125 113.291667,16.9270833 112.78125,15.53125 C112.270833,14.1354167 112.015625,12.5833333 112.015625,10.875 C112.015625,9.45833333 112.184896,8.15625 112.523438,6.96875 C112.861979,5.78125 113.333333,4.76302083 113.9375,3.9140625 C114.541667,3.06510417 115.255208,2.34375 116.078125,1.75 C116.901042,1.15625 117.791667,0.716145833 118.75,0.4296875 C119.708333,0.143229167 120.71875,0 121.78125,0 C122.697917,0 123.588542,0.106770833 124.453125,0.3203125 C125.317708,0.533854167 126.132812,0.875 126.898438,1.34375 C127.664062,1.8125 128.315104,2.38541667 128.851562,3.0625 C129.388021,3.73958333 129.78125,4.578125 130.03125,5.578125 C130.28125,6.578125 130.328125,7.68229167 130.171875,8.890625 L125.015625,8.890625 C125.182292,7.43229167 125.013021,6.33854167 124.507812,5.609375 C124.002604,4.88020833 123.0625,4.515625 121.6875,4.515625 C120.291667,4.515625 119.270833,5.0546875 118.625,6.1328125 C117.979167,7.2109375 117.65625,8.79166667 117.65625,10.875 C117.65625,15.1041667 119.052083,17.21875 121.84375,17.21875 C123,17.21875 123.851562,16.9036458 124.398438,16.2734375 C124.945312,15.6432292 125.203125,14.5520833 125.171875,13 L130.234375,13 Z" id="Path"></path>
                <polygon id="Path" points="142.21875 21.25 136.75 21.25 136.75 5.15625 131.09375 5.15625 131.09375 0.515625 147.890625 0.515625 147.890625 5.15625 142.21875 5.15625"></polygon>
                <path d="M150.28125,0.515625 L157.734375,0.515625 C158.807292,0.515625 159.786458,0.59375 160.671875,0.75 C161.557292,0.90625 162.382812,1.17447917 163.148438,1.5546875 C163.914062,1.93489583 164.559896,2.41927083 165.085938,3.0078125 C165.611979,3.59635417 166.023438,4.34375 166.320312,5.25 C166.617188,6.15625 166.765625,7.19270833 166.765625,8.359375 C166.765625,9.703125 166.526042,10.8932292 166.046875,11.9296875 C165.567708,12.9661458 164.898438,13.8046875 164.039062,14.4453125 C163.179688,15.0859375 162.182292,15.5703125 161.046875,15.8984375 C159.911458,16.2265625 158.65625,16.390625 157.28125,16.390625 L155.75,16.390625 L155.75,21.25 L150.28125,21.25 L150.28125,0.515625 Z M157.25,5.15625 L155.75,5.15625 L155.75,11.75 L157.28125,11.75 C159.885417,11.75 161.1875,10.6302083 161.1875,8.390625 C161.1875,7.28645833 160.869792,6.47135417 160.234375,5.9453125 C159.598958,5.41927083 158.604167,5.15625 157.25,5.15625 Z" id="Shape"></path>
                <path d="M182.8125,21.25 L182.8125,12.765625 C182.8125,11.265625 182.869792,9.74739583 182.984375,8.2109375 C183.098958,6.67447917 183.223958,5.55729167 183.359375,4.859375 L182.90625,4.796875 C182.677083,5.77604167 182.348958,7.01822917 181.921875,8.5234375 C181.494792,10.0286458 181.057292,11.3385417 180.609375,12.453125 L177.015625,21.25 L169.3125,21.25 L169.3125,0.515625 L174.78125,0.515625 L174.78125,9 C174.78125,10.4895833 174.723958,12.0026042 174.609375,13.5390625 C174.494792,15.0755208 174.369792,16.1927083 174.234375,16.890625 L174.6875,16.96875 C174.916667,15.9895833 175.244792,14.7473958 175.671875,13.2421875 C176.098958,11.7369792 176.536458,10.4270833 176.984375,9.3125 L180.578125,0.515625 L188.28125,0.515625 L188.28125,21.25 L182.8125,21.25 Z" id="Path"></path>
                <path d="M192.125,0.515625 L199.578125,0.515625 C200.651042,0.515625 201.630208,0.59375 202.515625,0.75 C203.401042,0.90625 204.226562,1.17447917 204.992188,1.5546875 C205.757812,1.93489583 206.403646,2.41927083 206.929688,3.0078125 C207.455729,3.59635417 207.867188,4.34375 208.164062,5.25 C208.460938,6.15625 208.609375,7.19270833 208.609375,8.359375 C208.609375,9.703125 208.369792,10.8932292 207.890625,11.9296875 C207.411458,12.9661458 206.742188,13.8046875 205.882812,14.4453125 C205.023438,15.0859375 204.026042,15.5703125 202.890625,15.8984375 C201.755208,16.2265625 200.5,16.390625 199.125,16.390625 L197.59375,16.390625 L197.59375,21.25 L192.125,21.25 L192.125,0.515625 Z M199.09375,5.15625 L197.59375,5.15625 L197.59375,11.75 L199.125,11.75 C201.729167,11.75 203.03125,10.6302083 203.03125,8.390625 C203.03125,7.28645833 202.713542,6.47135417 202.078125,5.9453125 C201.442708,5.41927083 200.447917,5.15625 199.09375,5.15625 Z" id="Shape"></path>
                <path d="M220.015625,21.703125 C217.911458,21.703125 216.111979,21.2395833 214.617188,20.3125 C213.122396,19.3854167 212.010417,18.1145833 211.28125,16.5 C210.552083,14.8854167 210.1875,13 210.1875,10.84375 C210.1875,8.69791667 210.554688,6.8203125 211.289062,5.2109375 C212.023438,3.6015625 213.138021,2.3359375 214.632812,1.4140625 C216.127604,0.4921875 217.932292,0.03125 220.046875,0.03125 C222.171875,0.03125 223.986979,0.4921875 225.492188,1.4140625 C226.997396,2.3359375 228.114583,3.6015625 228.84375,5.2109375 C229.572917,6.8203125 229.9375,8.69791667 229.9375,10.84375 C229.9375,13 229.570312,14.8854167 228.835938,16.5 C228.101562,18.1145833 226.979167,19.3854167 225.46875,20.3125 C223.958333,21.2395833 222.140625,21.703125 220.015625,21.703125 Z M220.015625,17.21875 C221.505208,17.21875 222.59375,16.6979167 223.28125,15.65625 C223.96875,14.6145833 224.3125,13.0104167 224.3125,10.84375 C224.3125,8.70833333 223.96875,7.11979167 223.28125,6.078125 C222.59375,5.03645833 221.505208,4.515625 220.015625,4.515625 C218.557292,4.515625 217.494792,5.03385417 216.828125,6.0703125 C216.161458,7.10677083 215.828125,8.69791667 215.828125,10.84375 C215.828125,13.0104167 216.158854,14.6145833 216.820312,15.65625 C217.481771,16.6979167 218.546875,17.21875 220.015625,17.21875 Z" id="Shape"></path>
                <path d="M248.65625,5.765625 C248.65625,6.19270833 248.609375,6.61458333 248.515625,7.03125 C248.421875,7.44791667 248.265625,7.88802083 248.046875,8.3515625 C247.828125,8.81510417 247.492188,9.23177083 247.039062,9.6015625 C246.585938,9.97135417 246.036458,10.25 245.390625,10.4375 L245.390625,10.71875 C246.651042,10.9895833 247.611979,11.5885417 248.273438,12.515625 C248.934896,13.4427083 249.265625,14.5 249.265625,15.6875 C249.265625,19.3958333 246.885417,21.25 242.125,21.25 L232.8125,21.25 L232.8125,0.515625 L241.640625,0.515625 C242.140625,0.515625 242.578125,0.5234375 242.953125,0.5390625 C243.328125,0.5546875 243.773438,0.6015625 244.289062,0.6796875 C244.804688,0.7578125 245.252604,0.8671875 245.632812,1.0078125 C246.013021,1.1484375 246.403646,1.34895833 246.804688,1.609375 C247.205729,1.86979167 247.53125,2.1796875 247.78125,2.5390625 C248.03125,2.8984375 248.239583,3.35416667 248.40625,3.90625 C248.572917,4.45833333 248.65625,5.078125 248.65625,5.765625 Z M241.734375,17.09375 C243.463542,17.09375 244.328125,16.3645833 244.328125,14.90625 C244.328125,14.1458333 244.111979,13.609375 243.679688,13.296875 C243.247396,12.984375 242.598958,12.828125 241.734375,12.828125 L238.28125,12.828125 L238.28125,17.09375 L241.734375,17.09375 Z M241.15625,4.671875 L238.28125,4.671875 L238.28125,9 L241.15625,9 C241.989583,9 242.635417,8.7890625 243.09375,8.3671875 C243.552083,7.9453125 243.78125,7.4375 243.78125,6.84375 C243.78125,6.25 243.552083,5.73958333 243.09375,5.3125 C242.635417,4.88541667 241.989583,4.671875 241.15625,4.671875 Z" id="Shape"></path>
                <path d="M263.90625,21.25 L263.078125,18.171875 L256.515625,18.171875 L255.71875,21.25 L250.046875,21.25 L255.84375,0.515625 L263.84375,0.515625 L269.640625,21.25 L263.90625,21.25 Z M260,5 L259.546875,5 C259.453125,6.52083333 259.052083,8.61979167 258.34375,11.296875 L257.765625,13.5 L261.796875,13.5 L261.21875,11.296875 C260.458333,8.44270833 260.052083,6.34375 260,5 Z" id="Shape"></path>
                <polygon id="Path" points="278.984375 21.25 273.515625 21.25 273.515625 5.15625 267.859375 5.15625 267.859375 0.515625 284.65625 0.515625 284.65625 5.15625 278.984375 5.15625"></polygon>
                <path d="M287.046875,0.515625 L292.515625,0.515625 L292.515625,7.203125 L294.828125,7.203125 C295.682292,7.203125 296.494792,7.28385417 297.265625,7.4453125 C298.036458,7.60677083 298.768229,7.8671875 299.460938,8.2265625 C300.153646,8.5859375 300.75,9.03125 301.25,9.5625 C301.75,10.09375 302.148438,10.7552083 302.445312,11.546875 C302.742188,12.3385417 302.890625,13.2239583 302.890625,14.203125 C302.890625,15.359375 302.666667,16.3932292 302.21875,17.3046875 C301.770833,18.2161458 301.15625,18.9557292 300.375,19.5234375 C299.59375,20.0911458 298.697917,20.5208333 297.6875,20.8125 C296.677083,21.1041667 295.583333,21.25 294.40625,21.25 L287.046875,21.25 L287.046875,0.515625 Z M294.65625,11.6875 L292.515625,11.6875 L292.515625,16.765625 L294.625,16.765625 C296.416667,16.765625 297.3125,15.921875 297.3125,14.234375 C297.3125,13.3802083 297.080729,12.7421875 296.617188,12.3203125 C296.153646,11.8984375 295.5,11.6875 294.65625,11.6875 Z" id="Shape"></path>
            </g>
        </g>
    </g>
</svg>