<?xml version="1.0" encoding="UTF-8"?>
<svg width="652px" height="102px" viewBox="0 0 652 102" version="1.1" xmlns="http://www.w3.org/2000/svg" xmlns:xlink="http://www.w3.org/1999/xlink">
    <title>about</title>
    <g id="Page-1" stroke="none" stroke-width="1" fill="none" fill-rule="evenodd">
        <g id="about">
            <rect id="Rectangle-Copy-5" fill="#4B8DF6" x="0" y="0" width="652" height="102" rx="12"></rect>
            <g id="О-ПРОГРАММЕ" transform="translate(205.9531, 38.7812)" fill="#E9F2FF" fill-rule="nonzero">
                <path d="M9.828125,21.671875 C7.72395833,21.671875 5.92447917,21.2083333 4.4296875,20.28125 C2.93489583,19.3541667 1.82291667,18.0833333 1.09375,16.46875 C0.364583333,14.8541667 0,12.96875 0,10.8125 C0,8.66666667 0.3671875,6.7890625 1.1015625,5.1796875 C1.8359375,3.5703125 2.95052083,2.3046875 4.4453125,1.3828125 C5.94010417,0.4609375 7.74479167,0 9.859375,0 C11.984375,0 13.7994792,0.4609375 15.3046875,1.3828125 C16.8098958,2.3046875 17.9270833,3.5703125 18.65625,5.1796875 C19.3854167,6.7890625 19.75,8.66666667 19.75,10.8125 C19.75,12.96875 19.3828125,14.8541667 18.6484375,16.46875 C17.9140625,18.0833333 16.7916667,19.3541667 15.28125,20.28125 C13.7708333,21.2083333 11.953125,21.671875 9.828125,21.671875 Z M9.828125,17.1875 C11.3177083,17.1875 12.40625,16.6666667 13.09375,15.625 C13.78125,14.5833333 14.125,12.9791667 14.125,10.8125 C14.125,8.67708333 13.78125,7.08854167 13.09375,6.046875 C12.40625,5.00520833 11.3177083,4.484375 9.828125,4.484375 C8.36979167,4.484375 7.30729167,5.00260417 6.640625,6.0390625 C5.97395833,7.07552083 5.640625,8.66666667 5.640625,10.8125 C5.640625,12.9791667 5.97135417,14.5833333 6.6328125,15.625 C7.29427083,16.6666667 8.359375,17.1875 9.828125,17.1875 Z" id="Shape"></path>
                <polygon id="Path" points="45.875 0.484375 45.875 21.21875 40.40625 21.21875 40.40625 5.125 33.84375 5.125 33.84375 21.21875 28.375 21.21875 28.375 0.484375"></polygon>
                <path d="M49.71875,0.484375 L57.171875,0.484375 C58.2447917,0.484375 59.2239583,0.5625 60.109375,0.71875 C60.9947917,0.875 61.8203125,1.14322917 62.5859375,1.5234375 C63.3515625,1.90364583 63.9973958,2.38802083 64.5234375,2.9765625 C65.0494792,3.56510417 65.4609375,4.3125 65.7578125,5.21875 C66.0546875,6.125 66.203125,7.16145833 66.203125,8.328125 C66.203125,9.671875 65.9635417,10.8619792 65.484375,11.8984375 C65.0052083,12.9348958 64.3359375,13.7734375 63.4765625,14.4140625 C62.6171875,15.0546875 61.6197917,15.5390625 60.484375,15.8671875 C59.3489583,16.1953125 58.09375,16.359375 56.71875,16.359375 L55.1875,16.359375 L55.1875,21.21875 L49.71875,21.21875 L49.71875,0.484375 Z M56.6875,5.125 L55.1875,5.125 L55.1875,11.71875 L56.71875,11.71875 C59.3229167,11.71875 60.625,10.5989583 60.625,8.359375 C60.625,7.25520833 60.3072917,6.44010417 59.671875,5.9140625 C59.0364583,5.38802083 58.0416667,5.125 56.6875,5.125 Z" id="Shape"></path>
                <path d="M77.609375,21.671875 C75.5052083,21.671875 73.7057292,21.2083333 72.2109375,20.28125 C70.7161458,19.3541667 69.6041667,18.0833333 68.875,16.46875 C68.1458333,14.8541667 67.78125,12.96875 67.78125,10.8125 C67.78125,8.66666667 68.1484375,6.7890625 68.8828125,5.1796875 C69.6171875,3.5703125 70.7317708,2.3046875 72.2265625,1.3828125 C73.7213542,0.4609375 75.5260417,0 77.640625,0 C79.765625,0 81.5807292,0.4609375 83.0859375,1.3828125 C84.5911458,2.3046875 85.7083333,3.5703125 86.4375,5.1796875 C87.1666667,6.7890625 87.53125,8.66666667 87.53125,10.8125 C87.53125,12.96875 87.1640625,14.8541667 86.4296875,16.46875 C85.6953125,18.0833333 84.5729167,19.3541667 83.0625,20.28125 C81.5520833,21.2083333 79.734375,21.671875 77.609375,21.671875 Z M77.609375,17.1875 C79.0989583,17.1875 80.1875,16.6666667 80.875,15.625 C81.5625,14.5833333 81.90625,12.9791667 81.90625,10.8125 C81.90625,8.67708333 81.5625,7.08854167 80.875,6.046875 C80.1875,5.00520833 79.0989583,4.484375 77.609375,4.484375 C76.1510417,4.484375 75.0885417,5.00260417 74.421875,6.0390625 C73.7552083,7.07552083 73.421875,8.66666667 73.421875,10.8125 C73.421875,12.9791667 73.7526042,14.5833333 74.4140625,15.625 C75.0755208,16.6666667 76.140625,17.1875 77.609375,17.1875 Z" id="Shape"></path>
                <polygon id="Path" points="103.453125 5.125 95.875 5.125 95.875 21.21875 90.40625 21.21875 90.40625 0.484375 103.453125 0.484375"></polygon>
                <path d="M106.171875,0.484375 L113.625,0.484375 C114.697917,0.484375 115.677083,0.5625 116.5625,0.71875 C117.447917,0.875 118.273438,1.14322917 119.039062,1.5234375 C119.804688,1.90364583 120.450521,2.38802083 120.976562,2.9765625 C121.502604,3.56510417 121.914062,4.3125 122.210938,5.21875 C122.507812,6.125 122.65625,7.16145833 122.65625,8.328125 C122.65625,9.671875 122.416667,10.8619792 121.9375,11.8984375 C121.458333,12.9348958 120.789062,13.7734375 119.929688,14.4140625 C119.070312,15.0546875 118.072917,15.5390625 116.9375,15.8671875 C115.802083,16.1953125 114.546875,16.359375 113.171875,16.359375 L111.640625,16.359375 L111.640625,21.21875 L106.171875,21.21875 L106.171875,0.484375 Z M113.140625,5.125 L111.640625,5.125 L111.640625,11.71875 L113.171875,11.71875 C115.776042,11.71875 117.078125,10.5989583 117.078125,8.359375 C117.078125,7.25520833 116.760417,6.44010417 116.125,5.9140625 C115.489583,5.38802083 114.494792,5.125 113.140625,5.125 Z" id="Shape"></path>
                <path d="M135.21875,21.21875 L134.390625,18.140625 L127.828125,18.140625 L127.03125,21.21875 L121.359375,21.21875 L127.15625,0.484375 L135.15625,0.484375 L140.953125,21.21875 L135.21875,21.21875 Z M131.3125,4.96875 L130.859375,4.96875 C130.765625,6.48958333 130.364583,8.58854167 129.65625,11.265625 L129.078125,13.46875 L133.109375,13.46875 L132.53125,11.265625 C131.770833,8.41145833 131.364583,6.3125 131.3125,4.96875 Z" id="Shape"></path>
                <path d="M158.1875,20.359375 L152.578125,20.359375 L150.5625,13.3125 C150.177083,11.9583333 149.861979,10.484375 149.617188,8.890625 C149.372396,7.296875 149.229167,6.08333333 149.1875,5.25 L148.734375,5.25 C148.765625,5.9375 148.763021,7.05989583 148.726562,8.6171875 C148.690104,10.1744792 148.619792,11.5677083 148.515625,12.796875 L147.8125,21.21875 L142.21875,21.21875 L143.96875,0.484375 L151.75,0.484375 L153.890625,8.609375 C154.307292,10.203125 154.625,11.703125 154.84375,13.109375 C155.0625,14.515625 155.171875,15.5 155.171875,16.0625 L155.59375,16.0625 C155.59375,15.4895833 155.703125,14.5 155.921875,13.09375 C156.140625,11.6875 156.447917,10.2239583 156.84375,8.703125 L159.015625,0.484375 L166.796875,0.484375 L168.546875,21.21875 L162.953125,21.21875 L162.25,12.796875 C162.145833,11.4947917 162.067708,10.0677083 162.015625,8.515625 C161.963542,6.96354167 161.963542,5.875 162.015625,5.25 L161.578125,5.25 C161.578125,5.95833333 161.450521,7.125 161.195312,8.75 C160.940104,10.375 160.619792,11.8645833 160.234375,13.21875 L158.1875,20.359375 Z" id="Path"></path>
                <path d="M186.75,20.359375 L181.140625,20.359375 L179.125,13.3125 C178.739583,11.9583333 178.424479,10.484375 178.179688,8.890625 C177.934896,7.296875 177.791667,6.08333333 177.75,5.25 L177.296875,5.25 C177.328125,5.9375 177.325521,7.05989583 177.289062,8.6171875 C177.252604,10.1744792 177.182292,11.5677083 177.078125,12.796875 L176.375,21.21875 L170.78125,21.21875 L172.53125,0.484375 L180.3125,0.484375 L182.453125,8.609375 C182.869792,10.203125 183.1875,11.703125 183.40625,13.109375 C183.625,14.515625 183.734375,15.5 183.734375,16.0625 L184.15625,16.0625 C184.15625,15.4895833 184.265625,14.5 184.484375,13.09375 C184.703125,11.6875 185.010417,10.2239583 185.40625,8.703125 L187.578125,0.484375 L195.359375,0.484375 L197.109375,21.21875 L191.515625,21.21875 L190.8125,12.796875 C190.708333,11.4947917 190.630208,10.0677083 190.578125,8.515625 C190.526042,6.96354167 190.526042,5.875 190.578125,5.25 L190.140625,5.25 C190.140625,5.95833333 190.013021,7.125 189.757812,8.75 C189.502604,10.375 189.182292,11.8645833 188.796875,13.21875 L186.75,20.359375 Z" id="Path"></path>
                <polygon id="Path" points="212.65625 13 205.609375 13 205.609375 16.859375 213.828125 16.859375 213.828125 21.21875 200.140625 21.21875 200.140625 0.484375 213.515625 0.484375 213.515625 4.828125 205.609375 4.828125 205.609375 8.640625 212.65625 8.640625"></polygon>
            </g>
        </g>
    </g>
</svg>