<?xml version="1.0" encoding="UTF-8"?>
<svg width="1022px" height="1022px" viewBox="0 0 1022 1022" version="1.1" xmlns="http://www.w3.org/2000/svg" xmlns:xlink="http://www.w3.org/1999/xlink">
    <title>Icon</title>
    <g id="Page-1" stroke="none" stroke-width="1" fill="none" fill-rule="evenodd">
        <g id="Icon" fill-rule="nonzero">
            <rect id="Rectangle" fill="#FCDB3C" x="0" y="0" width="1022" height="1022"></rect>
            <path d="M84.324,644 L84.3246753,912.350649 C84.3246753,925.232512 94.7674882,935.675325 107.649351,935.675325 L381.714,935.675 L381.714,959 L107.649351,959 C81.8856257,959 61,938.114374 61,912.350649 L61,644 L84.324,644 Z M959,644 L959,912.350649 C959,938.114374 938.114374,959 912.350649,959 L644.116,959 L644.116,935.675 L912.350649,935.675325 C925.232512,935.675325 935.675325,925.232512 935.675325,912.350649 L935.675,644 L959,644 Z M381.714,61 L381.714,84.324 L107.649351,84.3246753 C94.7674882,84.3246753 84.3246753,94.7674882 84.3246753,107.649351 L84.324,382 L61,382 L61,107.649351 C61,81.8856257 81.8856257,61 107.649351,61 L381.714,61 Z M912.350649,61 C938.114374,61 959,81.8856257 959,107.649351 L959,382 L935.675,382 L935.675325,107.649351 C935.675325,94.7674882 925.232512,84.3246753 912.350649,84.3246753 L644.116,84.324 L644.116,61 L912.350649,61 Z" id="Combined-Shape" fill="#000000"></path>
            <g id="Group" transform="translate(263, 315)">
                <path d="M491.144805,0 C496.519155,0.369321552 497.422297,3.47218672 496.627082,7.65311456 L496.413723,8.60713168 L496.628718,10.6330429 C500.035604,49.4877835 479.998344,87.311115 436.431761,125.309775 L433.014539,128.238714 L435.067866,131.713263 C436.524444,134.275195 437.884717,136.882182 439.147099,139.532622 L440.967053,143.540672 C447.576741,158.834252 450.967142,175.410484 450.967141,192.99479 L450.961888,200.799407 L450.942901,205.948552 C450.632869,260.667447 444.511855,288.681133 421.480279,312.393005 C393.052948,341.66001 340.174496,356 252.324033,356 C95.7904617,356 55.2489027,317.368423 53.7747249,213.219172 L53.7217547,208.379602 L53.7051157,205.937885 L53.6861428,200.783164 L53.680924,192.991181 C53.680924,170.361716 59.2992613,149.418844 70.1241496,130.766345 L68.5664666,133.546563 L67.7227812,132.093806 L66.848595,130.601354 L64.0121272,128.233648 C18.071267,89.300127 -3.12521007,50.5098041 0.371311636,10.633008 L0.586291365,8.60713168 L0.372944587,7.65311456 C-0.361100116,3.79379656 0.351975896,0.853064493 4.69309557,0.132998975 L5.85522184,0 L7.00708156,0.0439355979 L7.13304518,0.0676442871 C8.04675077,0.159959591 8.95673871,0.260748287 9.86300486,0.370013158 L9.31610408,0.310920412 L10.5861464,0.196619359 C13.4611468,0.0910611375 16.4363649,0.557791975 19.2481487,1.46578287 L21.3222231,2.22746497 C61.2422496,10.558729 92.9968852,36.4537061 116.453538,79.5151375 L117.963377,82.366815 L120.473908,80.7924992 C154.30925,60.0532471 198.418751,48.4729125 246.731212,47.6435588 L252.324033,47.5956662 C299.933133,47.5956662 343.784993,57.9615521 378.118529,77.2529191 L380.905768,78.8606139 L382.592419,75.8388177 C405.083851,36.2964287 434.864702,11.9406564 471.155181,3.29934685 L474.805899,2.48761699 C479.748186,0.546817559 484.3346,-0.214698544 488.54722,0.385139551 L487.705519,0.310920412 L488.035745,0.264657356 C488.329878,0.231203004 488.615642,0.199774127 488.884253,0.171454402 L489.629846,0.0969063613 L489.992945,0.0439355979 L491.144805,0 Z M11.7702696,11.7780299 L11.7052902,12.5529782 C8.56831477,49.3767771 29.1898465,85.9654819 75.0217187,123.831799 L76.2414165,125.264941 C77.6531735,127.674695 78.8418072,129.700215 79.996891,131.663536 L81.595683,134.381038 L80.0150135,137.109124 C70.1517096,154.132252 65.0372224,173.227878 65.0372212,193.978116 L65.0424002,201.758033 L65.0612373,206.884728 L65.0775795,209.289701 L65.1301032,214.094607 C65.8070948,262.000049 72.4650285,287.938133 93.6488101,308.156628 C120.130818,333.431925 169.948777,346.35468 252.759951,346.35468 C337.914742,346.35468 388.142822,332.71136 414.060739,305.984641 C434.526663,284.880052 440.163632,259.039845 440.458575,206.901657 L440.477466,201.774291 L440.482679,193.981728 C440.482679,177.846913 437.391818,162.710689 431.372534,148.760617 C428.722895,142.619913 425.50892,136.717197 421.749743,131.071989 L419.051657,127.020236 L422.802615,123.917866 C469.891194,84.9714835 490.376281,47.452945 485.874311,9.6453202 L486.095512,11.788829 L485.295757,11.8064798 C483.825024,11.8976668 482.076908,12.2715315 479.900037,12.9916562 L478.184627,13.597667 C440.336431,21.5093451 410.383746,46.7523762 388.141594,89.7896486 L385.442063,95.013084 L380.467833,91.8788081 C346.955771,70.7627708 302.061675,59.2397193 252.759951,59.2397193 C200.627795,59.2397193 153.48929,72.1223006 119.494144,95.5196765 L114.360824,99.0527168 L111.595543,93.4677355 C89.1764077,48.1882748 58.6017285,21.7312525 18.8205988,13.3372544 C16.6006804,12.464096 14.6285826,11.9681328 12.9221107,11.8255575 L11.7702696,11.7780299 Z" id="Combined-Shape-Copy-4" stroke="#000000" stroke-width="11" fill="#000000" stroke-linejoin="round"></path>
                <g id="Group-5-Copy-2" transform="translate(100, 127)">
                    <circle id="Oval" fill="#000000" cx="45" cy="45" r="45"></circle>
                    <circle id="Oval-Copy-2" fill="#FFFFFF" cx="25.3398058" cy="26.2135922" r="13.1067961"></circle>
                </g>
                <g id="Group-5-Copy-3" transform="translate(308, 127)">
                    <circle id="Oval" fill="#000000" cx="45" cy="45" r="45"></circle>
                    <circle id="Oval-Copy-2" fill="#FFFFFF" cx="25.3398058" cy="26.2135922" r="13.1067961"></circle>
                </g>
                <path d="M274.608913,217 L274.608913,229.972844 L255.3378,229.972844 L255.329474,230.314286 C255.612469,247.708408 256.993004,258.545077 258.92004,261.640122 C262.267353,267.016294 281.311471,268.453104 289.588571,260.414141 C295.252522,254.913145 295.252522,252.725314 290.431914,249.404099 L297.870495,238.743054 C309.89878,247.030085 309.89878,258.828449 298.713838,269.691594 C285.034282,282.977582 257.263629,281.266424 248.498637,269.464344 C239.736371,281.266424 211.965718,282.977582 198.286162,269.691594 C187.10122,258.828449 187.10122,247.030085 199.129505,238.743054 L206.568086,249.404099 C201.747478,252.725314 201.747478,254.913145 207.411429,260.414141 C215.688529,268.453104 234.732647,267.016294 238.07996,261.640122 C240.006996,258.545077 241.387531,247.708408 241.670526,230.314286 L241.6622,229.972844 L222.391087,229.972844 L222.391087,217 L274.608913,217 Z" id="Combined-Shape-Copy-5" fill="#000000"></path>
            </g>
            <g id="ГТС" transform="translate(309, 131)" fill="#000000">
                <polygon id="Path" points="108 43.4958553 45.2694611 43.4958553 45.2694611 177 0 177 0 5 108 5"></polygon>
                <polygon id="Path" points="211.063256 177 165.807442 177 165.807442 43.4958553 119 43.4958553 119 5 258 5 258 43.4958553 211.063256 43.4958553"></polygon>
                <path d="M415.662155,107.663551 C416.529291,118.360891 415.72719,127.936736 413.255851,136.391086 C410.784512,144.845435 407.250932,151.746945 402.655109,157.095615 C398.059286,162.444285 392.466256,166.887132 385.87602,170.424155 C379.285783,173.961179 372.500441,176.441409 365.519993,177.864845 C358.539545,179.288282 351.190564,180 343.47305,180 C332.720559,180 322.575063,178.015816 313.036563,174.047448 C303.498063,170.07908 295.065161,164.406902 287.737859,157.030913 C280.410556,149.654925 274.622421,140.186916 270.373452,128.626887 C266.124484,117.066858 264,104.212797 264,90.0647017 C264,78.3321352 265.409097,67.5485262 268.22729,57.7138749 C271.045483,47.8792236 274.969275,39.4464414 279.998666,32.4155284 C285.028057,25.3846154 290.967942,19.410496 297.818319,14.4931704 C304.668697,9.57584472 312.082713,5.9309849 320.060368,3.55859094 C328.038022,1.18619698 336.449245,0 345.294037,0 C352.924837,0 360.338853,0.884255931 367.536085,2.65276779 C374.733317,4.42127965 381.518659,7.24658519 387.892112,11.1286844 C394.265564,15.0107836 399.685167,19.7555715 404.150919,25.3630482 C408.616671,30.9705248 411.890111,37.9151689 413.971239,46.1969806 C416.052366,54.4787922 416.442577,63.6232926 415.141873,73.6304817 L372.218622,73.6304817 C373.60604,61.5528397 372.196943,52.4946082 367.991332,46.4557872 C363.78572,40.4169662 355.959814,37.3975557 344.513614,37.3975557 C332.893986,37.3975557 324.39605,41.8619698 319.019804,50.790798 C313.643558,59.7196262 310.955436,72.8109274 310.955436,90.0647017 C310.955436,125.089863 322.575063,142.602444 345.814318,142.602444 C355.439532,142.602444 362.528372,139.992811 367.080838,134.773544 C371.633304,129.554277 373.779467,120.517613 373.519326,107.663551 L415.662155,107.663551 Z" id="Path"></path>
            </g>
            <g id="ПГИ" transform="translate(280, 696)" fill="#000000">
                <polygon id="Path" points="145 0 145 172 99.6875 172 99.6875 38.4958553 45.3125 38.4958553 45.3125 172 0 172 0 0"></polygon>
                <polygon id="Path" points="286 38.4958553 223.269461 38.4958553 223.269461 172 178 172 178 0 286 0"></polygon>
                <path d="M419.736409,172 L419.736409,101.618689 C419.736409,89.175584 420.210599,76.581261 421.158979,63.8357197 C422.107359,51.0901783 423.141955,41.8226576 424.262768,36.0331575 L420.512356,35.5146948 C418.615596,43.6372771 415.89978,53.9417232 412.364909,66.4280332 C408.830038,78.9143431 405.208951,89.7804572 401.501647,99.0263753 L371.757002,172 L308,172 L308,0 L353.263591,0 L353.263591,70.3813112 C353.263591,82.7380055 352.789401,95.2891233 351.841021,108.034665 C350.892641,120.780206 349.858045,130.047727 348.737232,135.837227 L352.487644,136.485305 C354.384404,128.362723 357.10022,118.058277 360.635091,105.571967 C364.169962,93.0856569 367.791049,82.2195428 371.498353,72.9736247 L401.242998,0 L465,0 L465,172 L419.736409,172 Z" id="Path"></path>
            </g>
            <g id="2023" transform="translate(405.7556, 892.6914)" fill="#000000">
                <path d="M29.9260232,20.6054688 C29.9260232,18.0013021 29.2505675,16.1376953 27.899656,15.0146484 C26.5487446,13.8916016 24.8478982,13.3300781 22.797117,13.3300781 C21.2020649,13.3300781 19.7697732,13.655599 18.500242,14.3066406 C17.2307107,14.9576823 16.2541482,15.9830729 15.5705545,17.3828125 C14.8869607,18.7825521 14.9032368,20.5891927 15.6193826,22.8027344 L0.72680448,22.8027344 C-0.217205937,18.9615885 -0.241619999,15.608724 0.653562293,12.7441406 C1.54874458,9.87955729 3.16821073,7.50325521 5.51196073,5.61523438 C7.85571073,3.72721354 10.5168435,2.31933594 13.4953592,1.39160156 C16.4738748,0.463867188 19.5744607,0 22.797117,0 C25.0432107,0 27.2160623,0.187174479 29.3156717,0.561523438 C31.415281,0.935872396 33.5393045,1.6031901 35.687742,2.56347656 C37.8361795,3.52376302 39.7079243,4.73632812 41.3029764,6.20117188 C42.8980284,7.66601562 44.2001118,9.59472656 45.2092264,11.9873047 C46.2183409,14.3798828 46.7228982,17.0898437 46.7228982,20.1171875 C46.7228982,27.4088542 44.3140441,33.8867188 39.4963357,39.5507812 C34.6786274,45.2148438 27.7450336,49.3977865 18.6955545,52.0996094 L18.6955545,53.3203125 L46.625242,53.3203125 L46.625242,66.3085938 L2.82641386,66.3085938 L2.82641386,53.3203125 C12.0386534,47.7539062 18.8583149,42.2770182 23.2853982,36.8896484 C27.7124816,31.5022786 29.9260232,26.0742188 29.9260232,20.6054688 Z" id="Path"></path>
                <path d="M78.656492,67.9199219 C75.9546691,67.9199219 73.3667784,67.578125 70.8928201,66.8945312 C68.4188618,66.2109375 65.9937316,65.0309245 63.6174295,63.3544922 C61.2411274,61.6780599 59.1822081,59.5947266 57.4406717,57.1044922 C55.6991352,54.6142578 54.2993956,51.4160156 53.2414529,47.5097656 C52.1835102,43.6035156 51.6545389,39.2089844 51.6545389,34.3261719 C51.6545389,29.313151 52.1753722,24.8128255 53.2170389,20.8251953 C54.2587055,16.8375651 55.6421691,13.5660807 57.3674295,11.0107422 C59.0926899,8.45540365 61.1353331,6.33138021 63.4953592,4.63867188 C65.8553852,2.94596354 68.2967915,1.74967448 70.8195779,1.04980469 C73.3423644,0.349934896 75.9872211,0 78.7541482,0 C81.4234191,0 83.9787576,0.341796875 86.4201639,1.02539062 C88.8615701,1.70898438 91.2622863,2.88085938 93.6223123,4.54101562 C95.9823383,6.20117188 98.0249816,8.28450521 99.750242,10.7910156 C101.475502,13.297526 102.858966,16.4957682 103.900633,20.3857422 C104.942299,24.2757161 105.463133,28.6458333 105.463133,33.4960938 C105.463133,38.5416667 104.950437,43.0664062 103.925047,47.0703125 C102.899656,51.0742188 101.540607,54.3619792 99.8478982,56.9335938 C98.1551899,59.5052083 96.1369607,61.6292318 93.7932107,63.3056641 C91.4494607,64.9820964 89.0324685,66.1702474 86.5422342,66.8701172 C84.0519998,67.569987 81.4234191,67.9199219 78.656492,67.9199219 Z M72.0646951,48.5839844 C73.594643,52.0670573 75.7268045,53.8085938 78.4611795,53.8085938 C81.1955545,53.8085938 83.343992,52.0996094 84.906492,48.6816406 C86.468992,45.2636719 87.250242,40.4785156 87.250242,34.3261719 C87.250242,27.9459635 86.485268,22.9817708 84.9553201,19.4335938 C83.4253722,15.8854167 81.2606586,14.1113281 78.4611795,14.1113281 C75.7593566,14.1113281 73.6353331,15.8610026 72.0891092,19.3603516 C70.5428852,22.8597005 69.7697732,27.7018229 69.7697732,33.8867188 C69.7697732,40.1692708 70.5347472,45.0683594 72.0646951,48.5839844 Z" id="Shape"></path>
                <path d="M140.472898,20.6054688 C140.472898,18.0013021 139.797443,16.1376953 138.446531,15.0146484 C137.09562,13.8916016 135.394773,13.3300781 133.343992,13.3300781 C131.74894,13.3300781 130.316648,13.655599 129.047117,14.3066406 C127.777586,14.9576823 126.801023,15.9830729 126.117429,17.3828125 C125.433836,18.7825521 125.450112,20.5891927 126.166258,22.8027344 L111.273679,22.8027344 C110.329669,18.9615885 110.305255,15.608724 111.200437,12.7441406 C112.09562,9.87955729 113.715086,7.50325521 116.058836,5.61523438 C118.402586,3.72721354 121.063719,2.31933594 124.042234,1.39160156 C127.02075,0.463867188 130.121336,0 133.343992,0 C135.590086,0 137.762937,0.187174479 139.862547,0.561523438 C141.962156,0.935872396 144.086179,1.6031901 146.234617,2.56347656 C148.383054,3.52376302 150.254799,4.73632812 151.849851,6.20117188 C153.444903,7.66601562 154.746987,9.59472656 155.756101,11.9873047 C156.765216,14.3798828 157.269773,17.0898437 157.269773,20.1171875 C157.269773,27.4088542 154.860919,33.8867188 150.043211,39.5507812 C145.225502,45.2148438 138.291909,49.3977865 129.242429,52.0996094 L129.242429,53.3203125 L157.172117,53.3203125 L157.172117,66.3085938 L113.373289,66.3085938 L113.373289,53.3203125 C122.585528,47.7539062 129.40519,42.2770182 133.832273,36.8896484 C138.259357,31.5022786 140.472898,26.0742188 140.472898,20.6054688 Z" id="Path"></path>
                <path d="M186.908445,67.7246094 C184.239174,67.7246094 181.602456,67.4316406 178.998289,66.8457031 C176.394122,66.2597656 173.928302,65.3645833 171.600828,64.1601562 C169.273354,62.9557292 167.328367,61.4501953 165.765867,59.6435547 C164.203367,57.8369141 163.137286,55.7047526 162.567625,53.2470703 C161.997963,50.789388 162.152586,48.0143229 163.031492,44.921875 L178.412351,44.921875 C177.435789,48.0794271 177.826414,50.4475911 179.584226,52.0263672 C181.342039,53.6051432 183.913653,54.3945312 187.29907,54.3945312 C192.832924,54.3945312 195.599851,52.0670573 195.599851,47.4121094 C195.599851,44.7753906 194.802325,42.8792318 193.207273,41.7236328 C191.612221,40.5680339 189.610268,39.9902344 187.201414,39.9902344 L182.416258,39.9902344 L182.416258,28.0273438 L187.006101,28.0273438 C189.187091,28.0273438 191.050698,27.3681641 192.596922,26.0498047 C194.143146,24.7314453 194.916258,22.8190104 194.916258,20.3125 C194.916258,17.7408854 194.159422,15.8284505 192.64575,14.5751953 C191.132078,13.3219401 189.284747,12.6953125 187.103758,12.6953125 C185.508706,12.6953125 184.076414,13.0208333 182.806883,13.671875 C181.537351,14.3229167 180.560789,15.3564453 179.877195,16.7724609 C179.193601,18.1884766 179.209877,20.0032552 179.926023,22.2167969 L165.033445,22.2167969 C164.121987,18.375651 164.105711,15.0553385 164.984617,12.2558594 C165.863523,9.45638021 167.491127,7.15332031 169.867429,5.34667969 C172.243732,3.54003906 174.913002,2.19726562 177.875242,1.31835938 C180.837482,0.439453125 183.946206,0 187.201414,0 C191.791258,0 195.860268,0.634765625 199.408445,1.90429688 C202.956622,3.17382812 205.796791,5.14322917 207.928953,7.8125 C210.061114,10.4817708 211.127195,13.688151 211.127195,17.4316406 C211.127195,21.4355469 210.215737,24.5361328 208.39282,26.7333984 C206.569903,28.9306641 203.802976,30.7942708 200.092039,32.3242188 L200.092039,33.59375 C208.425372,36.3932292 212.592039,41.796875 212.592039,49.8046875 C212.592039,53.7109375 211.428302,57.039388 209.100828,59.7900391 C206.773354,62.5406901 203.713458,64.5507812 199.92114,65.8203125 C196.128823,67.0898438 191.791258,67.7246094 186.908445,67.7246094 Z" id="Path"></path>
            </g>
        </g>
    </g>
</svg>