<?xml version="1.0" encoding="UTF-8"?>
<svg width="652px" height="102px" viewBox="0 0 652 102" version="1.1" xmlns="http://www.w3.org/2000/svg" xmlns:xlink="http://www.w3.org/1999/xlink">
    <title>late</title>
    <g id="Page-1" stroke="none" stroke-width="1" fill="none" fill-rule="evenodd">
        <g id="late">
            <rect id="Rectangle-Copy-3" fill="#EAEEF4" x="0" y="0" width="652" height="102" rx="12"></rect>
            <g id="ОПАЗДЫВАЮЩИЕ" transform="translate(177.9531, 39.7812)" fill="#484848" fill-rule="nonzero">
                <path d="M9.828125,21.671875 C7.72395833,21.671875 5.92447917,21.2083333 4.4296875,20.28125 C2.93489583,19.3541667 1.82291667,18.0833333 1.09375,16.46875 C0.364583333,14.8541667 0,12.96875 0,10.8125 C0,8.66666667 0.3671875,6.7890625 1.1015625,5.1796875 C1.8359375,3.5703125 2.95052083,2.3046875 4.4453125,1.3828125 C5.94010417,0.4609375 7.74479167,0 9.859375,0 C11.984375,0 13.7994792,0.4609375 15.3046875,1.3828125 C16.8098958,2.3046875 17.9270833,3.5703125 18.65625,5.1796875 C19.3854167,6.7890625 19.75,8.66666667 19.75,10.8125 C19.75,12.96875 19.3828125,14.8541667 18.6484375,16.46875 C17.9140625,18.0833333 16.7916667,19.3541667 15.28125,20.28125 C13.7708333,21.2083333 11.953125,21.671875 9.828125,21.671875 Z M9.828125,17.1875 C11.3177083,17.1875 12.40625,16.6666667 13.09375,15.625 C13.78125,14.5833333 14.125,12.9791667 14.125,10.8125 C14.125,8.67708333 13.78125,7.08854167 13.09375,6.046875 C12.40625,5.00520833 11.3177083,4.484375 9.828125,4.484375 C8.36979167,4.484375 7.30729167,5.00260417 6.640625,6.0390625 C5.97395833,7.07552083 5.640625,8.66666667 5.640625,10.8125 C5.640625,12.9791667 5.97135417,14.5833333 6.6328125,15.625 C7.29427083,16.6666667 8.359375,17.1875 9.828125,17.1875 Z" id="Shape"></path>
                <polygon id="Path" points="40.125 0.484375 40.125 21.21875 34.65625 21.21875 34.65625 5.125 28.09375 5.125 28.09375 21.21875 22.625 21.21875 22.625 0.484375"></polygon>
                <path d="M56.0625,21.21875 L55.234375,18.140625 L48.671875,18.140625 L47.875,21.21875 L42.203125,21.21875 L48,0.484375 L56,0.484375 L61.796875,21.21875 L56.0625,21.21875 Z M52.15625,4.96875 L51.703125,4.96875 C51.609375,6.48958333 51.2083333,8.58854167 50.5,11.265625 L49.921875,13.46875 L53.953125,13.46875 L53.375,11.265625 C52.6145833,8.41145833 52.2083333,6.3125 52.15625,4.96875 Z" id="Shape"></path>
                <path d="M70.578125,21.671875 C69.796875,21.671875 69.0416667,21.6067708 68.3125,21.4765625 C67.5833333,21.3463542 66.8776042,21.1302083 66.1953125,20.828125 C65.5130208,20.5260417 64.921875,20.15625 64.421875,19.71875 C63.921875,19.28125 63.5208333,18.7369792 63.21875,18.0859375 C62.9166667,17.4348958 62.765625,16.7083333 62.765625,15.90625 C62.765625,15.34375 62.8177083,14.8333333 62.921875,14.375 L67.859375,14.375 C67.796875,14.6875 67.765625,14.9739583 67.765625,15.234375 C67.765625,16.6822917 68.703125,17.40625 70.578125,17.40625 C71.390625,17.40625 72.0572917,17.2265625 72.578125,16.8671875 C73.0989583,16.5078125 73.359375,15.9427083 73.359375,15.171875 C73.359375,13.5885417 72.3697917,12.796875 70.390625,12.796875 L68.8125,12.796875 L68.8125,8.96875 L70.359375,8.96875 C71.171875,8.96875 71.8385417,8.76041667 72.359375,8.34375 C72.8802083,7.92708333 73.140625,7.3125 73.140625,6.5 C73.140625,5.67708333 72.8984375,5.06510417 72.4140625,4.6640625 C71.9296875,4.26302083 71.3385417,4.0625 70.640625,4.0625 C70.296875,4.0625 69.9765625,4.09895833 69.6796875,4.171875 C69.3828125,4.24479167 69.0989583,4.36458333 68.828125,4.53125 C68.5572917,4.69791667 68.34375,4.9453125 68.1875,5.2734375 C68.03125,5.6015625 67.953125,5.98958333 67.953125,6.4375 C67.953125,6.59375 67.9739583,6.81770833 68.015625,7.109375 L63.25,7.109375 C63.1458333,6.53645833 63.09375,6.05729167 63.09375,5.671875 C63.09375,4.86979167 63.2421875,4.14322917 63.5390625,3.4921875 C63.8359375,2.84114583 64.2291667,2.30208333 64.71875,1.875 C65.2083333,1.44791667 65.7838542,1.09114583 66.4453125,0.8046875 C67.1067708,0.518229167 67.7890625,0.3125 68.4921875,0.1875 C69.1953125,0.0625 69.921875,0 70.671875,0 C72.140625,0 73.4427083,0.203125 74.578125,0.609375 C75.7135417,1.015625 76.6223958,1.64583333 77.3046875,2.5 C77.9869792,3.35416667 78.328125,4.38020833 78.328125,5.578125 C78.328125,6.86979167 78.0286458,7.875 77.4296875,8.59375 C76.8307292,9.3125 75.9427083,9.91666667 74.765625,10.40625 L74.765625,10.8125 C76.0677083,11.25 77.0651042,11.8776042 77.7578125,12.6953125 C78.4505208,13.5130208 78.796875,14.59375 78.796875,15.9375 C78.796875,17.1875 78.4244792,18.2526042 77.6796875,19.1328125 C76.9348958,20.0130208 75.9557292,20.65625 74.7421875,21.0625 C73.5286458,21.46875 72.140625,21.671875 70.578125,21.671875 Z" id="Path"></path>
                <path d="M99.28125,16.578125 L101.359375,16.578125 L101.359375,25.765625 L96.140625,25.765625 L96.140625,21.21875 L85.453125,21.21875 L85.453125,25.765625 L80.078125,25.765625 L80.078125,16.578125 L80.203125,16.578125 C82.7864583,16.578125 84.078125,12.7708333 84.078125,5.15625 L84.078125,0.484375 L99.28125,0.484375 L99.28125,16.578125 Z M86.03125,16.578125 L93.796875,16.578125 L93.796875,5.125 L89.125,5.125 C89.125,7.10416667 89.0494792,8.79166667 88.8984375,10.1875 C88.7473958,11.5833333 88.5208333,12.6796875 88.21875,13.4765625 C87.9166667,14.2734375 87.59375,14.8697917 87.25,15.265625 C86.90625,15.6614583 86.5,15.9479167 86.03125,16.125 L86.03125,16.578125 Z" id="Shape"></path>
                <path d="M104.0625,0.484375 L109.53125,0.484375 L109.53125,7.171875 L111.84375,7.171875 C112.697917,7.171875 113.510417,7.25260417 114.28125,7.4140625 C115.052083,7.57552083 115.783854,7.8359375 116.476562,8.1953125 C117.169271,8.5546875 117.765625,9 118.265625,9.53125 C118.765625,10.0625 119.164062,10.7239583 119.460938,11.515625 C119.757812,12.3072917 119.90625,13.1927083 119.90625,14.171875 C119.90625,15.328125 119.682292,16.3619792 119.234375,17.2734375 C118.786458,18.1848958 118.171875,18.9244792 117.390625,19.4921875 C116.609375,20.0598958 115.713542,20.4895833 114.703125,20.78125 C113.692708,21.0729167 112.598958,21.21875 111.421875,21.21875 L104.0625,21.21875 L104.0625,0.484375 Z M111.671875,11.65625 L109.53125,11.65625 L109.53125,16.734375 L111.640625,16.734375 C113.432292,16.734375 114.328125,15.890625 114.328125,14.203125 C114.328125,13.3489583 114.096354,12.7109375 113.632812,12.2890625 C113.169271,11.8671875 112.515625,11.65625 111.671875,11.65625 Z M127.359375,21.21875 L121.890625,21.21875 L121.890625,0.484375 L127.359375,0.484375 L127.359375,21.21875 Z" id="Shape"></path>
                <path d="M147.03125,5.734375 C147.03125,6.16145833 146.984375,6.58333333 146.890625,7 C146.796875,7.41666667 146.640625,7.85677083 146.421875,8.3203125 C146.203125,8.78385417 145.867188,9.20052083 145.414062,9.5703125 C144.960938,9.94010417 144.411458,10.21875 143.765625,10.40625 L143.765625,10.6875 C145.026042,10.9583333 145.986979,11.5572917 146.648438,12.484375 C147.309896,13.4114583 147.640625,14.46875 147.640625,15.65625 C147.640625,19.3645833 145.260417,21.21875 140.5,21.21875 L131.1875,21.21875 L131.1875,0.484375 L140.015625,0.484375 C140.515625,0.484375 140.953125,0.4921875 141.328125,0.5078125 C141.703125,0.5234375 142.148438,0.5703125 142.664062,0.6484375 C143.179688,0.7265625 143.627604,0.8359375 144.007812,0.9765625 C144.388021,1.1171875 144.778646,1.31770833 145.179688,1.578125 C145.580729,1.83854167 145.90625,2.1484375 146.15625,2.5078125 C146.40625,2.8671875 146.614583,3.32291667 146.78125,3.875 C146.947917,4.42708333 147.03125,5.046875 147.03125,5.734375 Z M140.109375,17.0625 C141.838542,17.0625 142.703125,16.3333333 142.703125,14.875 C142.703125,14.1145833 142.486979,13.578125 142.054688,13.265625 C141.622396,12.953125 140.973958,12.796875 140.109375,12.796875 L136.65625,12.796875 L136.65625,17.0625 L140.109375,17.0625 Z M139.53125,4.640625 L136.65625,4.640625 L136.65625,8.96875 L139.53125,8.96875 C140.364583,8.96875 141.010417,8.7578125 141.46875,8.3359375 C141.927083,7.9140625 142.15625,7.40625 142.15625,6.8125 C142.15625,6.21875 141.927083,5.70833333 141.46875,5.28125 C141.010417,4.85416667 140.364583,4.640625 139.53125,4.640625 Z" id="Shape"></path>
                <path d="M162.28125,21.21875 L161.453125,18.140625 L154.890625,18.140625 L154.09375,21.21875 L148.421875,21.21875 L154.21875,0.484375 L162.21875,0.484375 L168.015625,21.21875 L162.28125,21.21875 Z M158.375,4.96875 L157.921875,4.96875 C157.828125,6.48958333 157.427083,8.58854167 156.71875,11.265625 L156.140625,13.46875 L160.171875,13.46875 L159.59375,11.265625 C158.833333,8.41145833 158.427083,6.3125 158.375,4.96875 Z" id="Shape"></path>
                <path d="M187.03125,21.671875 C184.3125,21.671875 182.148438,20.9270833 180.539062,19.4375 C178.929688,17.9479167 177.927083,15.90625 177.53125,13.3125 L175.546875,13.3125 L175.546875,21.21875 L170.078125,21.21875 L170.078125,0.484375 L175.546875,0.484375 L175.546875,8.640625 L177.5,8.640625 C177.84375,5.96354167 178.828125,3.85416667 180.453125,2.3125 C182.078125,0.770833333 184.28125,0 187.0625,0 C188.666667,0 190.091146,0.263020833 191.335938,0.7890625 C192.580729,1.31510417 193.598958,2.05729167 194.390625,3.015625 C195.182292,3.97395833 195.78125,5.11197917 196.1875,6.4296875 C196.59375,7.74739583 196.796875,9.20833333 196.796875,10.8125 C196.796875,12.9791667 196.442708,14.8671875 195.734375,16.4765625 C195.026042,18.0859375 193.929688,19.3541667 192.445312,20.28125 C190.960938,21.2083333 189.15625,21.671875 187.03125,21.671875 Z M187.03125,17.1875 C188.510417,17.1875 189.570312,16.671875 190.210938,15.640625 C190.851562,14.609375 191.171875,13 191.171875,10.8125 C191.171875,8.65625 190.851562,7.0625 190.210938,6.03125 C189.570312,5 188.510417,4.484375 187.03125,4.484375 C185.583333,4.484375 184.549479,4.99739583 183.929688,6.0234375 C183.309896,7.04947917 183,8.64583333 183,10.8125 C183,13.0104167 183.309896,14.6223958 183.929688,15.6484375 C184.549479,16.6744792 185.583333,17.1875 187.03125,17.1875 Z" id="Shape"></path>
                <polygon id="Path" points="219.546875 0.484375 225.4375 0.484375 225.4375 16.578125 227.515625 16.578125 227.515625 25.765625 222.296875 25.765625 222.296875 21.21875 199.671875 21.21875 199.671875 0.484375 205.140625 0.484375 205.140625 16.578125 209.8125 16.578125 209.8125 0.484375 215.28125 0.484375 215.28125 16.578125 219.546875 16.578125"></polygon>
                <path d="M243.71875,21.21875 L243.71875,12.734375 C243.71875,11.234375 243.776042,9.71614583 243.890625,8.1796875 C244.005208,6.64322917 244.130208,5.52604167 244.265625,4.828125 L243.8125,4.765625 C243.583333,5.74479167 243.255208,6.98697917 242.828125,8.4921875 C242.401042,9.99739583 241.963542,11.3072917 241.515625,12.421875 L237.921875,21.21875 L230.21875,21.21875 L230.21875,0.484375 L235.6875,0.484375 L235.6875,8.96875 C235.6875,10.4583333 235.630208,11.9713542 235.515625,13.5078125 C235.401042,15.0442708 235.276042,16.1614583 235.140625,16.859375 L235.59375,16.9375 C235.822917,15.9583333 236.151042,14.7161458 236.578125,13.2109375 C237.005208,11.7057292 237.442708,10.3958333 237.890625,9.28125 L241.484375,0.484375 L249.1875,0.484375 L249.1875,21.21875 L243.71875,21.21875 Z" id="Path"></path>
                <polygon id="Path" points="265.546875 13 258.5 13 258.5 16.859375 266.71875 16.859375 266.71875 21.21875 253.03125 21.21875 253.03125 0.484375 266.40625 0.484375 266.40625 4.828125 258.5 4.828125 258.5 8.640625 265.546875 8.640625"></polygon>
            </g>
        </g>
    </g>
</svg>