<?xml version="1.0" encoding="UTF-8"?>
<svg width="652px" height="102px" viewBox="0 0 652 102" version="1.1" xmlns="http://www.w3.org/2000/svg" xmlns:xlink="http://www.w3.org/1999/xlink">
    <title>participants</title>
    <g id="Page-1" stroke="none" stroke-width="1" fill="none" fill-rule="evenodd">
        <g id="participants">
            <rect id="Rectangle" fill="#282828" x="0" y="0" width="652" height="102" rx="12"></rect>
            <g id="Group-2" transform="translate(177.166, 34)">
                <g id="УЧАСТНИКИ" transform="translate(0, 2.4219)" fill="#FCFCFC" fill-rule="nonzero">
                    <path d="M12.8496094,5.19628906 L14.7255859,0.547851562 L20.2705078,0.547851562 L11.1230469,22.578125 L5.21289062,22.578125 L7.35449219,17.6474609 L0,0.547851562 L6.15917969,0.547851562 L7.58691406,3.88476562 C9.16959635,7.58138021 10.0882161,10.6416016 10.3427734,13.0654297 L10.7080078,13.0654297 C10.7412109,12.2464193 10.9514974,11.1092122 11.3388672,9.65380859 C11.726237,8.19840495 12.2298177,6.7125651 12.8496094,5.19628906 Z" id="Path"></path>
                    <path d="M39.6445312,22.578125 L33.8339844,22.578125 L33.8339844,14.7587891 C31.9635417,15.2568359 30.2646484,15.5058594 28.7373047,15.5058594 C27.9736328,15.5058594 27.2652995,15.444987 26.6123047,15.3232422 C25.9593099,15.2014974 25.3312174,14.988444 24.7280273,14.684082 C24.1248372,14.3797201 23.6129557,13.9923503 23.1923828,13.5219727 C22.7718099,13.0515951 22.4342448,12.4428711 22.1796875,11.6958008 C21.9251302,10.9487305 21.7978516,10.0992839 21.7978516,9.14746094 L21.7978516,0.547851562 L27.6083984,0.547851562 L27.6083984,8.46679688 C27.6083984,9.91666667 28.5159505,10.6416016 30.3310547,10.6416016 C31.1611328,10.6416016 32.328776,10.4589844 33.8339844,10.09375 L33.8339844,0.547851562 L39.6445312,0.547851562 L39.6445312,22.578125 Z" id="Path"></path>
                    <path d="M56.578125,22.578125 L55.6982422,19.3076172 L48.7255859,19.3076172 L47.8789062,22.578125 L41.8525391,22.578125 L48.0117188,0.547851562 L56.5117188,0.547851562 L62.6708984,22.578125 L56.578125,22.578125 Z M52.4277344,5.3125 L51.9462891,5.3125 C51.8466797,6.92838542 51.4205729,9.15852865 50.6679688,12.0029297 L50.0537109,14.34375 L54.3369141,14.34375 L53.7226562,12.0029297 C52.9147135,8.9703776 52.4830729,6.74023438 52.4277344,5.3125 Z" id="Shape"></path>
                    <path d="M83.1904297,13.8125 C83.3011068,15.1848958 83.1987305,16.4134115 82.8833008,17.4980469 C82.5678711,18.5826823 82.116862,19.468099 81.5302734,20.1542969 C80.9436849,20.8404948 80.2298177,21.4104818 79.3886719,21.8642578 C78.547526,22.3180339 77.6814779,22.6362305 76.7905273,22.8188477 C75.8995768,23.0014648 74.9615885,23.0927734 73.9765625,23.0927734 C72.6041667,23.0927734 71.3092448,22.8382161 70.0917969,22.3291016 C68.874349,21.819987 67.7980143,21.0922852 66.862793,20.1459961 C65.9275716,19.199707 65.1888021,17.985026 64.6464844,16.5019531 C64.1041667,15.0188802 63.8330078,13.3697917 63.8330078,11.5546875 C63.8330078,10.0494792 64.0128581,8.66601562 64.3725586,7.40429688 C64.7322591,6.14257813 65.2330729,5.06070964 65.875,4.15869141 C66.5169271,3.25667318 67.2750651,2.49023438 68.1494141,1.859375 C69.023763,1.22851562 69.9700521,0.760904948 70.9882812,0.456542969 C72.0065104,0.15218099 73.0800781,0 74.2089844,0 C75.1829427,0 76.1292318,0.11344401 77.0478516,0.340332031 C77.9664714,0.567220052 78.8325195,0.9296875 79.6459961,1.42773438 C80.4594727,1.92578125 81.1512044,2.53450521 81.7211914,3.25390625 C82.2911784,3.97330729 82.7089844,4.86425781 82.9746094,5.92675781 C83.2402344,6.98925781 83.2900391,8.1624349 83.1240234,9.44628906 L77.6455078,9.44628906 C77.8225911,7.8968099 77.6427409,6.73470052 77.105957,5.95996094 C76.5691732,5.18522135 75.5703125,4.79785156 74.109375,4.79785156 C72.6263021,4.79785156 71.5416667,5.37060547 70.8554688,6.51611328 C70.1692708,7.66162109 69.8261719,9.34114583 69.8261719,11.5546875 C69.8261719,16.0481771 71.3092448,18.2949219 74.2753906,18.2949219 C75.5039062,18.2949219 76.4086914,17.9601237 76.9897461,17.2905273 C77.5708008,16.620931 77.8447266,15.4615885 77.8115234,13.8125 L83.1904297,13.8125 Z" id="Path"></path>
                    <polygon id="Path" points="96.6044922 22.578125 90.7939453 22.578125 90.7939453 5.47851562 84.7841797 5.47851562 84.7841797 0.547851562 102.630859 0.547851562 102.630859 5.47851562 96.6044922 5.47851562"></polygon>
                    <polygon id="Path" points="118.319336 0.547851562 124.146484 0.547851562 124.146484 22.578125 118.319336 22.578125 118.319336 14.1777344 110.981445 14.1777344 110.981445 22.578125 105.170898 22.578125 105.170898 0.547851562 110.981445 0.547851562 110.981445 9.21386719 118.319336 9.21386719"></polygon>
                    <path d="M142.557617,22.578125 L142.557617,13.5634766 C142.557617,11.9697266 142.61849,10.3566081 142.740234,8.72412109 C142.861979,7.09163411 142.994792,5.9046224 143.138672,5.16308594 L142.657227,5.09667969 C142.413737,6.13704427 142.065104,7.45686849 141.611328,9.05615234 C141.157552,10.6554362 140.692708,12.0472005 140.216797,13.2314453 L136.398438,22.578125 L128.213867,22.578125 L128.213867,0.547851562 L134.024414,0.547851562 L134.024414,9.5625 C134.024414,11.1451823 133.963542,12.7527669 133.841797,14.3852539 C133.720052,16.0177409 133.58724,17.2047526 133.443359,17.9462891 L133.924805,18.0292969 C134.168294,16.9889323 134.516927,15.6691081 134.970703,14.0698242 C135.424479,12.4705404 135.889323,11.078776 136.365234,9.89453125 L140.183594,0.547851562 L148.368164,0.547851562 L148.368164,22.578125 L142.557617,22.578125 Z" id="Path"></path>
                    <path d="M158.262695,22.578125 L152.452148,22.578125 L152.452148,0.547851562 L158.262695,0.547851562 L158.262695,9.24707031 L159.922852,9.24707031 C160.697591,9.24707031 161.325684,9.03955078 161.807129,8.62451172 C162.288574,8.20947266 162.673177,7.59244792 162.960938,6.7734375 C163.990234,3.5859375 164.803711,1.51074219 165.401367,0.547851562 L171.460938,0.547851562 C169.778646,3.7906901 168.539062,6.39713542 167.742188,8.3671875 C167.388021,9.27473958 166.95638,9.94156901 166.447266,10.3676758 C165.938151,10.7937826 165.180013,11.078776 164.172852,11.2226562 L164.172852,11.5546875 C165.246419,11.7207031 166.057129,12.0112305 166.60498,12.4262695 C167.152832,12.8413086 167.581706,13.469401 167.891602,14.3105469 C168.278971,15.3730469 168.868327,16.7288411 169.659668,18.3779297 C170.451009,20.0270182 171.195312,21.4270833 171.892578,22.578125 L165.500977,22.578125 C165.135742,21.9915365 164.701335,21.1061198 164.197754,19.921875 C163.694173,18.7376302 163.304036,17.6861979 163.027344,16.7675781 C162.739583,15.8046875 162.357747,15.1267904 161.881836,14.7338867 C161.405924,14.3409831 160.75293,14.1445312 159.922852,14.1445312 L158.262695,14.1445312 L158.262695,22.578125 Z" id="Path"></path>
                    <path d="M188.444336,22.578125 L188.444336,13.5634766 C188.444336,11.9697266 188.505208,10.3566081 188.626953,8.72412109 C188.748698,7.09163411 188.88151,5.9046224 189.025391,5.16308594 L188.543945,5.09667969 C188.300456,6.13704427 187.951823,7.45686849 187.498047,9.05615234 C187.044271,10.6554362 186.579427,12.0472005 186.103516,13.2314453 L182.285156,22.578125 L174.100586,22.578125 L174.100586,0.547851562 L179.911133,0.547851562 L179.911133,9.5625 C179.911133,11.1451823 179.85026,12.7527669 179.728516,14.3852539 C179.606771,16.0177409 179.473958,17.2047526 179.330078,17.9462891 L179.811523,18.0292969 C180.055013,16.9889323 180.403646,15.6691081 180.857422,14.0698242 C181.311198,12.4705404 181.776042,11.078776 182.251953,9.89453125 L186.070312,0.547851562 L194.254883,0.547851562 L194.254883,22.578125 L188.444336,22.578125 Z" id="Path"></path>
                </g>
                <rect id="Rectangle" fill="#FFFFFF" x="216.833984" y="0" width="72" height="27" rx="13.5"></rect>
                <g id="GO" transform="translate(233.7275, 3.0781)" fill="#282828" fill-rule="nonzero">
                    <path d="M9.27246094,20.3759766 C6.49902344,20.3759766 4.26025391,19.4848633 2.55615234,17.7026367 C0.852050781,15.9204102 0,13.4179687 0,10.1953125 C0,8.53515625 0.234375,7.05322266 0.703125,5.74951172 C1.171875,4.44580078 1.83105469,3.37646484 2.68066406,2.54150391 C3.53027344,1.70654297 4.52880859,1.07421875 5.67626953,0.64453125 C6.82373047,0.21484375 8.09570312,0 9.4921875,0 C10.3613281,0 11.2084961,0.100097656 12.0336914,0.300292969 C12.8588867,0.500488281 13.6474609,0.8203125 14.3994141,1.25976562 C15.1513672,1.69921875 15.7958984,2.23632812 16.3330078,2.87109375 C16.8701172,3.50585938 17.265625,4.29443359 17.5195312,5.23681641 C17.7734375,6.17919922 17.8271484,7.21191406 17.6806641,8.33496094 L12.8466797,8.33496094 C12.9931641,7.00683594 12.7807617,5.99121094 12.2094727,5.28808594 C11.6381836,4.58496094 10.6982422,4.23339844 9.38964844,4.23339844 C7.93457031,4.23339844 6.88720703,4.73632812 6.24755859,5.7421875 C5.60791016,6.74804688 5.28808594,8.23242188 5.28808594,10.1953125 C5.28808594,12.1582031 5.625,13.6401367 6.29882812,14.6411133 C6.97265625,15.6420898 8.05664062,16.1425781 9.55078125,16.1425781 C10.5566406,16.1425781 11.3500977,15.9155273 11.9311523,15.4614258 C12.512207,15.0073242 12.8564453,14.4042969 12.9638672,13.6523438 L9.38964844,13.6523438 L9.38964844,9.87304688 L17.9150391,9.87304688 L17.9150391,11.1914062 C17.9150391,12.8808594 17.7099609,14.3286133 17.2998047,15.534668 C16.8896484,16.7407227 16.2915039,17.6928711 15.5053711,18.3911133 C14.7192383,19.0893555 13.8183594,19.5947266 12.8027344,19.9072266 C11.7871094,20.2197266 10.6103516,20.3759766 9.27246094,20.3759766 Z" id="Path"></path>
                    <path d="M29.0625,20.3466797 C27.0898438,20.3466797 25.402832,19.9121094 24.0014648,19.0429688 C22.6000977,18.1738281 21.5576172,16.9824219 20.8740234,15.46875 C20.1904297,13.9550781 19.8486328,12.1875 19.8486328,10.1660156 C19.8486328,8.15429688 20.1928711,6.39404297 20.8813477,4.88525391 C21.5698242,3.37646484 22.6147461,2.18994141 24.0161133,1.32568359 C25.4174805,0.461425781 27.109375,0.029296875 29.0917969,0.029296875 C31.0839844,0.029296875 32.7856445,0.461425781 34.1967773,1.32568359 C35.6079102,2.18994141 36.6552734,3.37646484 37.3388672,4.88525391 C38.0224609,6.39404297 38.3642578,8.15429688 38.3642578,10.1660156 C38.3642578,12.1875 38.0200195,13.9550781 37.331543,15.46875 C36.6430664,16.9824219 35.5908203,18.1738281 34.1748047,19.0429688 C32.7587891,19.9121094 31.0546875,20.3466797 29.0625,20.3466797 Z M29.0625,16.1425781 C30.4589844,16.1425781 31.4794922,15.6542969 32.1240234,14.6777344 C32.7685547,13.7011719 33.0908203,12.1972656 33.0908203,10.1660156 C33.0908203,8.1640625 32.7685547,6.67480469 32.1240234,5.69824219 C31.4794922,4.72167969 30.4589844,4.23339844 29.0625,4.23339844 C27.6953125,4.23339844 26.6992188,4.71923828 26.0742188,5.69091797 C25.4492188,6.66259766 25.1367188,8.15429688 25.1367188,10.1660156 C25.1367188,12.1972656 25.4467773,13.7011719 26.0668945,14.6777344 C26.6870117,15.6542969 27.6855469,16.1425781 29.0625,16.1425781 Z" id="Shape"></path>
                </g>
            </g>
        </g>
    </g>
</svg>