<?xml version="1.0" encoding="UTF-8"?>
<svg width="285px" height="406px" viewBox="0 0 285 406" version="1.1" xmlns="http://www.w3.org/2000/svg" xmlns:xlink="http://www.w3.org/1999/xlink">
    <title>QR_bg</title>
    <g id="QR_bg" stroke="none" stroke-width="1" fill="none" fill-rule="evenodd">
        <path d="M285,0 L285,406 L0,406 L0,0 L285,0 Z M212,126 L74,126 C69.581722,126 66,129.581722 66,134 L66,272 C66,276.418278 69.581722,280 74,280 L212,280 C216.418278,280 220,276.418278 220,272 L220,134 C220,129.581722 216.418278,126 212,126 Z" id="Combined-Shape" fill-opacity="0.0934768357" fill="#000000"></path>
        <path d="M70,226 L70,272 C70,274.209139 71.790861,276 74,276 L120.999,276 L120.999,280 L74,280 C69.581722,280 66,276.418278 66,272 L66,226 L70,226 Z M220,226 L220,272 C220,276.418278 216.418278,280 212,280 L165.999,280 L165.999,276 L212,276 C214.209139,276 216,274.209139 216,272 L216,226 L220,226 Z M120.999,126 L120.999,130 L74,130 C71.790861,130 70,131.790861 70,134 L70,181 L66,181 L66,134 C66,129.581722 69.581722,126 74,126 L120.999,126 Z M212,126 C216.418278,126 220,129.581722 220,134 L220,181 L216,181 L216,134 C216,131.790861 214.209139,130 212,130 L165.999,130 L165.999,126 L212,126 Z" id="Combined-Shape" fill-opacity="0.242815778" fill="#525252" fill-rule="nonzero"></path>
    </g>
</svg>